<svg width="1023" height="191" viewBox="0 0 1023 191" fill="none" xmlns="http://www.w3.org/2000/svg">
<path d="M154.656 91.2646C150.764 71.1719 136.494 27.9254 110.552 15.6805C78.1249 0.374323 25.0267 37.8508 13.1132 125.348C3.58232 195.347 57.2196 155.724 98.8751 129.372C128.225 110.805 180.32 72.762 196.759 83.5878C212.933 94.239 195.181 141.893 180.376 155.724C175.011 160.379 164.013 165.255 162.94 147.519C161.867 129.783 156.97 102.626 154.656 91.2646Z" stroke="url(#paint0_linear_206_48)" stroke-width="24"/>
<circle cx="190.434" cy="39.0728" r="21.6079" fill="#0CB0D6"/>
<path d="M279.35 47H302.6V152H279.35V47ZM332.289 47H360.789L399.339 116.9V47H422.589V152H394.089L355.539 81.95V152H332.289V47ZM450.819 96.5C450.819 87.3 451.969 79.55 454.269 73.25C456.669 66.95 459.919 61.85 464.019 57.95C468.119 54.05 472.919 51.25 478.419 49.55C483.919 47.85 489.769 47 495.969 47H535.419V67.4H498.969C495.969 67.4 493.069 67.8 490.269 68.6C487.569 69.3 485.119 70.5 482.919 72.2C480.819 73.9 479.019 76.15 477.519 78.95C476.119 81.75 475.119 85.2 474.519 89.3H535.419V109.7H474.069V152H450.819V96.5ZM562.094 47H585.344V152H562.094V47ZM615.034 47H643.534L682.084 116.9V47H705.334V152H676.834L638.284 81.95V152H615.034V47ZM735.063 47H758.313V152H735.063V47ZM785.752 132.35L845.152 67.4H785.752V47H876.202V66.5L816.802 131.6H876.202V152H785.752V132.35ZM944.437 152C938.237 152 932.387 151.1 926.887 149.3C921.387 147.4 916.587 144.4 912.487 140.3C908.387 136.1 905.137 130.7 902.737 124.1C900.337 117.4 899.137 109.2 899.137 99.5C899.137 89.8 900.337 81.6 902.737 74.9C905.137 68.2 908.387 62.8 912.487 58.7C916.587 54.6 921.387 51.65 926.887 49.85C932.387 47.95 938.237 47 944.437 47H983.737V67.4H947.287C944.387 67.4 941.587 67.75 938.887 68.45C936.287 69.15 933.887 70.35 931.687 72.05C929.587 73.75 927.787 76 926.287 78.8C924.787 81.6 923.737 85.1 923.137 89.3H983.737V109.7H923.137C923.737 113.9 924.787 117.4 926.287 120.2C927.787 123 929.587 125.25 931.687 126.95C933.887 128.65 936.287 129.85 938.887 130.55C941.587 131.25 944.387 131.6 947.287 131.6H983.737V152H944.437Z" fill="url(#paint1_linear_206_48)"/>
<defs>
<linearGradient id="paint0_linear_206_48" x1="42.7793" y1="22.5825" x2="170.532" y2="173.08" gradientUnits="userSpaceOnUse">
<stop stop-color="#283897"/>
<stop offset="0.284" stop-color="#0086C5"/>
<stop offset="1" stop-color="#18DCE8"/>
</linearGradient>
<linearGradient id="paint1_linear_206_48" x1="647" y1="30" x2="647" y2="152" gradientUnits="userSpaceOnUse">
<stop stop-color="#17D7E6"/>
<stop offset="1" stop-color="#1E4BA2"/>
</linearGradient>
</defs>
</svg>
