<svg width="296" height="296" viewBox="0 0 296 296" fill="none" xmlns="http://www.w3.org/2000/svg">
<path d="M148 286.019C221.015 286.019 280.205 251.844 280.205 209.686C280.205 167.529 221.015 133.354 148 133.354C74.985 133.354 15.7946 167.529 15.7946 209.686C15.7946 251.844 74.985 286.019 148 286.019Z" fill="#F5F5F5"/>
<path d="M200.031 184.609L244.561 210.314C245.122 210.64 245.759 210.812 246.408 210.812C247.057 210.812 247.694 210.64 248.255 210.314L273.03 195.999C273.198 195.903 273.336 195.764 273.433 195.596C273.529 195.429 273.58 195.239 273.58 195.046C273.58 194.853 273.529 194.663 273.433 194.496C273.336 194.329 273.198 194.19 273.03 194.093L228.512 168.454C227.952 168.131 227.317 167.961 226.671 167.961C226.025 167.961 225.39 168.131 224.83 168.454L200.037 182.697C199.869 182.794 199.73 182.933 199.634 183.101C199.537 183.268 199.485 183.458 199.485 183.651C199.484 183.845 199.534 184.035 199.63 184.203C199.726 184.371 199.864 184.511 200.031 184.609Z" fill="#E0E0E0"/>
<path d="M164.99 175.049L57.8798 237.037C57.0075 237.543 56.018 237.812 55.0096 237.817C54.0011 237.823 53.0089 237.564 52.1315 237.067L24.3075 221.319C24.0184 221.153 23.7783 220.914 23.6114 220.626C23.4444 220.337 23.3564 220.01 23.3564 219.677C23.3564 219.343 23.4444 219.016 23.6114 218.727C23.7783 218.439 24.0184 218.2 24.3075 218.034L131.217 156.288C132.087 155.788 133.071 155.522 134.074 155.516C135.078 155.51 136.065 155.764 136.941 156.253L164.967 171.958C165.241 172.111 165.47 172.334 165.631 172.604C165.791 172.875 165.876 173.182 165.879 173.497C165.881 173.811 165.8 174.12 165.644 174.393C165.488 174.665 165.263 174.892 164.99 175.049Z" fill="#E0E0E0"/>
<path d="M182.135 237.262C198.368 237.262 211.528 229.663 211.528 220.289C211.528 210.916 198.368 203.317 182.135 203.317C165.902 203.317 152.742 210.916 152.742 220.289C152.742 229.663 165.902 237.262 182.135 237.262Z" fill="#E0E0E0"/>
<path d="M245.71 230.051C251.369 230.051 255.957 227.401 255.957 224.131C255.957 220.862 251.369 218.211 245.71 218.211C240.05 218.211 235.462 220.862 235.462 224.131C235.462 227.401 240.05 230.051 245.71 230.051Z" fill="#E0E0E0"/>
<path d="M246.041 130.856L246.053 208.982L271.355 194.36V116.31L246.041 130.856Z" fill="#E6E6E6"/>
<path d="M203.068 184.165L246.053 208.982V130.927L203.08 106.187L203.068 184.165Z" fill="#EBEBEB"/>
<path d="M203.068 106.11L246.053 130.927L271.355 116.31L228.388 91.5647L203.068 106.11Z" fill="#F5F5F5"/>
<path d="M208.106 134.68L240.766 153.541C240.909 153.623 241.071 153.666 241.235 153.666C241.4 153.665 241.561 153.622 241.704 153.54C241.846 153.458 241.965 153.34 242.048 153.198C242.13 153.056 242.174 152.895 242.175 152.73V136.16C242.173 135.751 242.062 135.349 241.854 134.997C241.646 134.644 241.349 134.353 240.991 134.153L208.384 115.363C208.241 115.281 208.079 115.238 207.914 115.239C207.749 115.239 207.587 115.283 207.444 115.366C207.302 115.448 207.183 115.567 207.101 115.71C207.018 115.853 206.975 116.015 206.975 116.18V132.673C206.971 133.077 207.074 133.476 207.272 133.828C207.471 134.18 207.758 134.474 208.106 134.68Z" fill="#FAFAFA"/>
<path d="M227.441 130.53C227.328 130.529 227.218 130.498 227.121 130.441L221.355 127.126C221.222 127.033 221.129 126.893 221.094 126.735C221.059 126.576 221.084 126.41 221.165 126.27C221.246 126.129 221.376 126.024 221.531 125.974C221.685 125.924 221.852 125.934 222 126.001L227.766 129.322C227.88 129.397 227.967 129.506 228.016 129.634C228.064 129.762 228.07 129.901 228.034 130.033C227.998 130.164 227.921 130.281 227.814 130.366C227.708 130.451 227.577 130.5 227.441 130.506V130.53Z" fill="#E0E0E0"/>
<path d="M208.106 157.815L240.766 176.671C240.909 176.752 241.071 176.795 241.235 176.795C241.4 176.795 241.561 176.751 241.704 176.669C241.846 176.587 241.965 176.469 242.048 176.327C242.13 176.185 242.174 176.024 242.175 175.859V159.283C242.173 158.874 242.061 158.473 241.854 158.121C241.646 157.768 241.348 157.477 240.991 157.277L208.384 138.528C208.241 138.446 208.08 138.403 207.915 138.404C207.751 138.404 207.589 138.447 207.447 138.529C207.304 138.611 207.186 138.729 207.103 138.871C207.02 139.013 206.976 139.175 206.975 139.339V155.832C206.976 156.232 207.081 156.625 207.279 156.973C207.477 157.32 207.762 157.611 208.106 157.815Z" fill="#FAFAFA"/>
<path d="M227.441 153.659C227.329 153.658 227.219 153.63 227.121 153.577L221.355 150.255C221.222 150.162 221.129 150.022 221.094 149.864C221.059 149.706 221.084 149.54 221.165 149.399C221.246 149.258 221.376 149.153 221.531 149.103C221.685 149.054 221.852 149.063 222 149.131L227.766 152.452C227.88 152.527 227.967 152.636 228.016 152.763C228.064 152.891 228.07 153.031 228.034 153.162C227.998 153.294 227.921 153.41 227.814 153.496C227.708 153.581 227.577 153.63 227.441 153.636V153.659Z" fill="#E0E0E0"/>
<path d="M208.106 180.945L240.766 199.8C240.909 199.882 241.071 199.925 241.235 199.925C241.4 199.924 241.561 199.881 241.704 199.799C241.846 199.717 241.965 199.599 242.048 199.457C242.13 199.315 242.174 199.154 242.175 198.989V182.413C242.172 182.004 242.061 181.603 241.854 181.25C241.646 180.898 241.348 180.607 240.991 180.406L208.384 161.616C208.241 161.534 208.08 161.492 207.915 161.492C207.751 161.492 207.589 161.535 207.447 161.617C207.304 161.699 207.186 161.817 207.103 161.959C207.02 162.101 206.976 162.263 206.975 162.427V178.926C206.97 179.332 207.072 179.733 207.27 180.087C207.469 180.441 207.757 180.737 208.106 180.945Z" fill="#FAFAFA"/>
<path d="M227.44 176.789C227.328 176.791 227.218 176.762 227.121 176.706L221.355 173.385C221.281 173.343 221.217 173.286 221.165 173.219C221.113 173.152 221.075 173.075 221.053 172.993C221.031 172.911 221.026 172.826 221.037 172.742C221.048 172.658 221.075 172.576 221.118 172.503C221.16 172.429 221.217 172.365 221.284 172.313C221.351 172.262 221.428 172.224 221.511 172.203C221.593 172.181 221.678 172.176 221.762 172.188C221.846 172.2 221.927 172.229 222 172.272L227.766 175.587C227.84 175.63 227.904 175.686 227.956 175.753C228.007 175.821 228.045 175.897 228.067 175.979C228.089 176.061 228.095 176.147 228.084 176.231C228.073 176.315 228.045 176.396 228.003 176.469C227.947 176.568 227.865 176.65 227.766 176.706C227.667 176.763 227.554 176.791 227.44 176.789Z" fill="#E0E0E0"/>
<path d="M229.939 52.1848V73.0647L248.024 83.5016V62.6218L229.939 52.1848Z" fill="#FAFAFA"/>
<path d="M231.898 53.3096L248.048 62.6217V81.2401L231.922 71.9339V53.3096M230.939 51.6165L229.963 52.2085V73.0883L248.048 83.5016L249.025 82.9096V62.0593L230.916 51.6165H230.939Z" fill="#E0E0E0"/>
<path d="M230.916 53.8721L247.042 63.1842V81.8026L230.916 72.4905V53.8721ZM229.939 52.179V73.0588L248.048 83.5017V62.6218L229.939 52.1849V52.179Z" fill="#EBEBEB"/>
<path d="M232.591 68.2872L246.272 76.1845L242.229 65.6705L239.434 68.9917L236.569 64.9187L232.591 68.2872Z" fill="#E0E0E0"/>
<path d="M237.339 61.7278C237.362 62.1609 237.487 62.5824 237.704 62.9579C237.921 63.3334 238.224 63.6523 238.588 63.8886C239.275 64.2853 239.837 63.9597 239.837 63.1664C239.813 62.7335 239.687 62.3124 239.47 61.937C239.253 61.5616 238.951 61.2426 238.588 61.0056C237.895 60.6089 237.339 60.9286 237.339 61.7278Z" fill="#E0E0E0"/>
<path d="M253.441 77.4573V94.0925L267.845 102.41V85.7749L253.441 77.4573Z" fill="#FAFAFA"/>
<path d="M254.998 78.3631L267.845 85.775V100.64L254.998 93.2223V78.4223M254.217 77.0666L253.441 77.5166V94.1518L267.845 102.416L268.626 101.966V85.331L254.217 77.043V77.0666Z" fill="#E0E0E0"/>
<path d="M254.217 78.813L267.063 86.2248V101.06L254.217 93.6426V78.813ZM253.441 77.4573V94.0925L267.845 102.416V85.7808L253.441 77.4928V77.4573Z" fill="#EBEBEB"/>
<path d="M255.555 90.286L266.447 96.579L263.233 88.2022L261.001 90.8543L258.722 87.6042L255.555 90.286Z" fill="#E0E0E0"/>
<path d="M259.332 85.0644C259.351 85.4095 259.45 85.7452 259.623 86.0445C259.796 86.3437 260.037 86.5982 260.326 86.7871C260.877 87.1009 261.321 86.8463 261.321 86.1951C261.303 85.8499 261.203 85.5138 261.03 85.2144C260.857 84.915 260.616 84.6607 260.326 84.4724C259.776 84.1705 259.332 84.431 259.332 85.0644Z" fill="#E0E0E0"/>
<path d="M246.313 209.047C246.313 209.047 240.015 202.896 243.602 192.595C245.609 186.823 252.263 182.585 256.034 182.182C254.779 183.673 253.779 185.362 253.074 187.179L248.303 190.352L252.689 188.978L251.754 192.732C251.754 192.732 247.675 195.2 247.071 195.739L251.47 194.59C251.47 194.59 251.15 205.223 246.313 209.047Z" fill="#1C71B5"/>
<path opacity="0.4" d="M246.313 209.047C246.313 209.047 240.015 202.896 243.602 192.595C245.609 186.823 252.263 182.585 256.034 182.182C254.779 183.673 253.779 185.362 253.074 187.179L248.303 190.352L252.689 188.978L251.754 192.732C251.754 192.732 247.675 195.2 247.071 195.739L251.47 194.59C251.47 194.59 251.15 205.223 246.313 209.047Z" fill="black"/>
<path d="M246.313 209.047C246.313 209.047 243.052 196.177 247.876 188.67C247.876 188.67 242.223 195.295 246.313 209.047Z" fill="white"/>
<path d="M253.518 210.788L245.822 210.693H245.745L238.049 210.788C238.049 210.788 237.96 220.26 240.885 224.143C241.696 225.173 243.584 225.919 245.792 225.919C248.001 225.919 249.901 225.191 250.706 224.143C253.607 220.271 253.518 210.788 253.518 210.788Z" fill="#37474F"/>
<path d="M253.518 210.788C253.518 213.085 250.055 214.932 245.775 214.932C241.495 214.932 238.031 213.067 238.031 210.788C238.031 208.508 241.501 206.644 245.775 206.644C250.049 206.644 253.518 208.491 253.518 210.788Z" fill="#455A64"/>
<path d="M245.775 209.687C248.439 209.687 250.694 210.539 251.493 211.723C251.688 211.449 251.795 211.123 251.801 210.788C251.801 209.148 249.102 207.828 245.775 207.828C242.448 207.828 239.748 209.16 239.748 210.788C239.753 211.124 239.863 211.451 240.062 211.723C240.855 210.539 243.111 209.687 245.775 209.687Z" fill="#263238"/>
<path d="M245.775 209.687C243.111 209.687 240.855 210.539 240.062 211.723C240.855 212.907 243.111 213.765 245.775 213.765C248.439 213.765 250.694 212.907 251.493 211.723C250.694 210.539 248.439 209.687 245.775 209.687Z" fill="#E0E0E0"/>
<path d="M245.869 212.238C245.869 212.238 242.909 212.126 240.328 208.159C239.269 206.525 238.759 205.667 238.759 205.667L242.903 205.353L238.244 204.169L236.042 200.801L239.908 200.51C238.314 199.955 236.654 199.61 234.971 199.486C234.971 199.486 231.419 193.187 230.359 192.288C233.066 192.452 235.712 193.159 238.141 194.366C240.569 195.574 242.73 197.256 244.496 199.315C250.339 206.247 246.74 212.416 245.869 212.238Z" fill="#1C71B5"/>
<path d="M245.869 212.238C245.869 212.238 247.74 200.99 235.805 194.229C235.823 194.229 248.19 200.173 245.869 212.238Z" fill="white"/>
<path d="M245.869 212.238C245.869 212.238 248.575 212.416 251.257 209.083C252.364 207.703 252.902 206.975 252.902 206.975L249.179 206.306L253.494 205.714L255.797 202.878L252.334 202.257C253.825 201.905 255.356 201.751 256.887 201.801C256.887 201.801 260.699 196.473 261.723 195.739C259.277 195.63 256.833 196.012 254.536 196.861C252.239 197.711 250.136 199.013 248.35 200.688C242.406 206.413 245.088 212.315 245.869 212.238Z" fill="#1C71B5"/>
<path opacity="0.2" d="M245.869 212.238C245.869 212.238 248.575 212.416 251.257 209.083C252.364 207.703 252.902 206.975 252.902 206.975L249.179 206.306L253.494 205.714L255.797 202.878L252.334 202.257C253.825 201.905 255.356 201.751 256.887 201.801C256.887 201.801 260.699 196.473 261.723 195.739C259.277 195.63 256.833 196.012 254.536 196.861C252.239 197.711 250.136 199.013 248.35 200.688C242.406 206.413 245.088 212.315 245.869 212.238Z" fill="black"/>
<path d="M245.869 212.238C245.869 212.238 245.242 201.919 256.632 196.935C256.632 196.935 244.916 201.132 245.869 212.238Z" fill="white"/>
<path d="M128.34 68.5832L125.646 67.488L125.374 67.3755H125.344C124.861 67.2011 124.346 67.1346 123.835 67.1807C123.323 67.2267 122.828 67.3841 122.384 67.6419L29.9493 120.993C28.0068 122.112 26.3936 123.724 25.2721 125.665C24.1507 127.607 23.5608 129.81 23.5616 132.052V212.528C23.5621 213.383 23.7877 214.223 24.2158 214.964C24.6439 215.704 25.2594 216.319 26.0004 216.746C26.7413 217.173 27.5817 217.398 28.437 217.398C29.2923 217.397 30.1324 217.171 30.8728 216.743L123.397 163.327C124.717 162.564 125.813 161.467 126.574 160.146C127.336 158.825 127.737 157.327 127.736 155.803V70.744C127.738 70.1349 127.583 69.5355 127.286 69.0035L128.34 68.5832Z" fill="#1C71B5"/>
<path opacity="0.3" d="M128.34 68.5832L125.646 67.488L125.374 67.3755H125.344C124.861 67.2011 124.346 67.1346 123.835 67.1807C123.323 67.2267 122.828 67.3841 122.384 67.6419L29.9493 120.993C28.0068 122.112 26.3936 123.724 25.2721 125.665C24.1507 127.607 23.5608 129.81 23.5616 132.052V212.528C23.5621 213.383 23.7877 214.223 24.2158 214.964C24.6439 215.704 25.2594 216.319 26.0004 216.746C26.7413 217.173 27.5817 217.398 28.437 217.398C29.2923 217.397 30.1324 217.171 30.8728 216.743L123.397 163.327C124.717 162.564 125.813 161.467 126.574 160.146C127.336 158.825 127.737 157.327 127.736 155.803V70.744C127.738 70.1349 127.583 69.5355 127.286 69.0035L128.34 68.5832Z" fill="black"/>
<path d="M130.187 71.7149V156.803C130.188 158.328 129.787 159.826 129.024 161.146C128.261 162.466 127.163 163.561 125.841 164.321L33.3178 217.744C32.5766 218.17 31.7364 218.394 30.8813 218.394C30.0262 218.393 29.1863 218.168 28.4457 217.74C27.7051 217.313 27.09 216.698 26.6619 215.958C26.2338 215.217 26.0078 214.378 26.0066 213.523V133.011C26.0071 130.804 26.5803 128.636 27.6701 126.718C28.4956 125.295 29.6874 124.119 31.1215 123.314L126.688 68.1333C127.615 68.1622 128.495 68.5477 129.144 69.2094C129.794 69.8712 130.163 70.7581 130.175 71.6853L130.187 71.7149Z" fill="#1C71B5"/>
<path opacity="0.1" d="M130.187 71.7149V156.803C130.188 158.328 129.787 159.826 129.024 161.146C128.261 162.466 127.163 163.561 125.841 164.321L33.3178 217.744C32.5766 218.17 31.7364 218.394 30.8813 218.394C30.0262 218.393 29.1863 218.168 28.4457 217.74C27.7051 217.313 27.09 216.698 26.6619 215.958C26.2338 215.217 26.0078 214.378 26.0066 213.523V133.011C26.0071 130.804 26.5803 128.636 27.6701 126.718C28.4956 125.295 29.6874 124.119 31.1215 123.314L126.688 68.1333C127.615 68.1622 128.495 68.5477 129.144 69.2094C129.794 69.8712 130.163 70.7581 130.175 71.6853L130.187 71.7149Z" fill="black"/>
<path d="M125.841 164.321L33.3178 217.744C32.6016 218.162 31.7895 218.39 30.9599 218.403C30.1303 218.417 29.3112 218.216 28.5818 217.82L83.8272 134.674L130.187 156.797C130.187 158.322 129.786 159.821 129.023 161.142C128.26 162.463 127.163 163.559 125.841 164.321Z" fill="#1C71B5"/>
<path opacity="0.2" d="M125.841 164.321L33.3178 217.744C32.6016 218.162 31.7895 218.39 30.9599 218.403C30.1303 218.417 29.3112 218.216 28.5818 217.82L83.8272 134.674L130.187 156.797C130.187 158.322 129.786 159.821 129.023 161.142C128.26 162.463 127.163 163.559 125.841 164.321Z" fill="black"/>
<path d="M128.63 68.7667L90.9017 147.686C90.1586 149.237 89.1034 150.617 87.8021 151.741C86.5009 152.865 84.9816 153.708 83.3394 154.218C81.6973 154.727 79.9676 154.892 78.2587 154.703C76.5498 154.513 74.8984 153.972 73.4081 153.115L27.6702 126.735C28.4509 125.349 29.5897 124.198 30.9676 123.402L126.688 68.1333C127.383 68.1498 128.059 68.37 128.63 68.7667Z" fill="#1C71B5"/>
<path d="M37.1658 101.398L64.2675 85.7453V66.3455L44.5717 77.2027C42.3284 78.4375 40.4577 80.2519 39.155 82.4564C37.8523 84.6609 37.1653 87.1747 37.1658 89.7354V101.398Z" fill="#1C71B5"/>
<path opacity="0.5" d="M37.1658 101.398L64.2675 85.7453V66.3455L44.5717 77.2027C42.3284 78.4375 40.4577 80.2519 39.155 82.4564C37.8523 84.6609 37.1653 87.1747 37.1658 89.7354V101.398Z" fill="white"/>
<path d="M149.184 26.2671L146.704 24.864C143.553 23.0424 139.977 22.0868 136.338 22.094C132.699 22.1013 129.127 23.0713 125.984 24.9055L48.473 70.0632C45.0324 72.0669 42.1775 74.938 40.1934 78.39C38.2093 81.8419 37.1654 85.7539 37.1658 89.7354C37.1655 87.69 37.7054 85.6808 38.7308 83.911C39.7561 82.1412 41.2307 80.6736 43.0053 79.6565C44.7799 78.6395 46.7916 78.1091 48.8369 78.1189C50.8823 78.1288 52.8888 78.6786 54.6535 79.7128L57.8976 81.6131C61.2753 83.5902 64.077 86.4165 66.0242 89.8115C67.9715 93.2065 68.9965 97.0519 68.9976 100.966V216.133L63.7111 229.554L73.6389 223.51L153.446 177.203C156.281 175.56 158.634 173.2 160.268 170.36C161.902 167.52 162.761 164.301 162.759 161.024V49.8227C162.758 45.0513 161.504 40.3638 159.121 36.2297C156.739 32.0956 153.312 28.66 149.184 26.2671Z" fill="#1C71B5"/>
<path opacity="0.7" d="M149.184 26.2671L146.704 24.864C143.553 23.0424 139.977 22.0868 136.338 22.094C132.699 22.1013 129.127 23.0713 125.984 24.9055L48.473 70.0632C45.0324 72.0669 42.1775 74.938 40.1934 78.39C38.2093 81.8419 37.1654 85.7539 37.1658 89.7354C37.1655 87.69 37.7054 85.6808 38.7308 83.911C39.7561 82.1412 41.2307 80.6736 43.0053 79.6565C44.7799 78.6395 46.7916 78.1091 48.8369 78.1189C50.8823 78.1288 52.8888 78.6786 54.6535 79.7128L57.8976 81.6131C61.2753 83.5902 64.077 86.4165 66.0242 89.8115C67.9715 93.2065 68.9965 97.0519 68.9976 100.966V216.133L63.7111 229.554L73.6389 223.51L153.446 177.203C156.281 175.56 158.634 173.2 160.268 170.36C161.902 167.52 162.761 164.301 162.759 161.024V49.8227C162.758 45.0513 161.504 40.3638 159.121 36.2297C156.739 32.0956 153.312 28.66 149.184 26.2671Z" fill="white"/>
<path d="M40.3804 219.087C40.3804 219.087 45.9393 227.216 54.8725 229.909C64.4807 232.804 68.9977 226.434 68.9977 217.986V202.707L40.3804 219.087Z" fill="#1C71B5"/>
<path opacity="0.5" d="M40.3804 219.087C40.3804 219.087 45.9393 227.216 54.8725 229.909C64.4807 232.804 68.9977 226.434 68.9977 217.986V202.707L40.3804 219.087Z" fill="white"/>
<path d="M86.2663 137.344C86.0743 137.341 85.8885 137.276 85.7371 137.158C85.5856 137.039 85.4769 136.875 85.4273 136.69C85.3778 136.504 85.3901 136.308 85.4625 136.13C85.5348 135.952 85.6632 135.802 85.8282 135.704L145.028 101.51C145.23 101.394 145.47 101.363 145.694 101.423C145.919 101.484 146.111 101.631 146.227 101.833C146.343 102.035 146.374 102.274 146.314 102.499C146.253 102.724 146.106 102.915 145.904 103.032L86.7044 137.226C86.5708 137.302 86.42 137.343 86.2663 137.344Z" fill="white"/>
<path d="M86.2663 150.457C86.0737 150.456 85.8866 150.393 85.734 150.275C85.5813 150.158 85.4716 149.993 85.4217 149.807C85.3719 149.622 85.3847 149.424 85.4581 149.246C85.5316 149.068 85.6616 148.919 85.8282 148.823L145.028 114.623C145.23 114.507 145.47 114.476 145.694 114.536C145.919 114.597 146.111 114.744 146.227 114.946C146.343 115.147 146.374 115.387 146.314 115.612C146.253 115.837 146.106 116.028 145.904 116.144L86.7043 150.368C86.5681 150.434 86.4174 150.464 86.2663 150.457Z" fill="white"/>
<path d="M86.2663 163.564C86.0737 163.563 85.8866 163.5 85.734 163.382C85.5813 163.265 85.4716 163.101 85.4217 162.915C85.3719 162.729 85.3847 162.531 85.4581 162.353C85.5316 162.175 85.6616 162.027 85.8282 161.93L145.028 127.736C145.228 127.632 145.461 127.609 145.677 127.672C145.894 127.735 146.078 127.88 146.191 128.075C146.304 128.27 146.337 128.501 146.284 128.721C146.23 128.94 146.094 129.13 145.904 129.251L86.7043 163.445C86.5708 163.522 86.42 163.562 86.2663 163.564Z" fill="white"/>
<path d="M86.2663 176.67C86.0737 176.67 85.8866 176.606 85.734 176.489C85.5813 176.372 85.4716 176.207 85.4217 176.021C85.3719 175.835 85.3847 175.638 85.4581 175.46C85.5316 175.282 85.6616 175.133 85.8282 175.037L145.028 140.843C145.228 140.739 145.461 140.716 145.677 140.779C145.894 140.842 146.078 140.986 146.191 141.182C146.304 141.377 146.337 141.608 146.284 141.827C146.23 142.046 146.094 142.237 145.904 142.358L86.7043 176.552C86.5719 176.631 86.4204 176.672 86.2663 176.67Z" fill="white"/>
<path d="M86.2663 189.777C86.0737 189.777 85.8866 189.713 85.734 189.596C85.5813 189.479 85.4716 189.314 85.4217 189.128C85.3719 188.942 85.3847 188.745 85.4581 188.567C85.5316 188.389 85.6616 188.24 85.8282 188.143L145.028 153.95C145.228 153.846 145.461 153.823 145.677 153.886C145.894 153.949 146.078 154.093 146.191 154.288C146.304 154.484 146.337 154.715 146.284 154.934C146.23 155.153 146.094 155.344 145.904 155.465L86.7043 189.659C86.5719 189.738 86.4204 189.779 86.2663 189.777Z" fill="white"/>
<path d="M125.143 180.436C124.989 180.437 124.838 180.397 124.704 180.32C124.571 180.243 124.461 180.131 124.385 179.998C124.273 179.798 124.243 179.562 124.303 179.34C124.363 179.119 124.507 178.93 124.705 178.814L145.04 167.057C145.24 166.952 145.473 166.93 145.689 166.993C145.906 167.056 146.09 167.2 146.203 167.395C146.315 167.591 146.349 167.822 146.295 168.041C146.242 168.26 146.106 168.45 145.916 168.572L125.581 180.323C125.447 180.398 125.296 180.436 125.143 180.436Z" fill="white"/>
<path d="M203.068 75.2787C209.944 75.2787 215.518 69.7047 215.518 62.8289C215.518 55.9531 209.944 50.3792 203.068 50.3792C196.192 50.3792 190.618 55.9531 190.618 62.8289C190.618 69.7047 196.192 75.2787 203.068 75.2787Z" fill="#1C71B5"/>
<path d="M200.848 72.5081C200.848 72.5081 201.961 76.4626 197.456 80.133C197.456 80.133 204.394 79.4345 204.773 72.8396L200.848 72.5081Z" fill="#1C71B5"/>
<path d="M204.293 63.9774H201.617L200.948 57.5542H204.962L204.293 63.9774ZM202.955 68.1214C202.709 68.1382 202.462 68.1052 202.229 68.0242C201.995 67.9433 201.781 67.8161 201.598 67.6503C201.415 67.4844 201.267 67.2834 201.164 67.0592C201.06 66.835 201.003 66.5922 200.996 66.3454C201.049 65.8628 201.278 65.4168 201.64 65.0929C202.001 64.7689 202.47 64.5898 202.955 64.5898C203.441 64.5898 203.909 64.7689 204.271 65.0929C204.632 65.4168 204.862 65.8628 204.915 66.3454C204.906 66.5912 204.848 66.8327 204.744 67.0555C204.639 67.2783 204.492 67.478 204.309 67.6425C204.126 67.8071 203.912 67.9333 203.68 68.0135C203.447 68.0937 203.201 68.1264 202.955 68.1096V68.1214Z" fill="white"/>
<path d="M178.488 110.953C177.207 110.853 175.92 111.072 174.743 111.588C173.566 112.104 172.534 112.903 171.739 113.913C169.105 117.382 163.528 125.587 163.528 125.587C163.528 125.587 161.196 123 159.668 121.182C158.141 119.365 156.708 117.826 156.708 117.826C156.507 116.847 156.357 115.859 156.258 114.866C156.128 113.457 155.939 112.498 154.909 111.533C153.879 110.568 153.091 109.662 153.008 108.928C152.925 108.194 152.416 107.46 151.765 108.212C151.114 108.963 151.173 111.272 152.535 112.811C152.535 112.811 150.102 111.681 148.983 110.355C147.864 109.029 146.419 106.72 145.78 107.359C145.141 107.999 143.915 114.883 145.78 116.417C147.645 117.95 152.257 120.561 152.257 120.561C152.257 120.561 158.283 135.313 162.522 135.313C166.761 135.313 173.77 124.409 173.77 124.409L178.488 110.953Z" fill="#FFA8A7"/>
<path d="M170.964 187.972L172.272 207.987C172.272 207.987 173.456 210.107 175.735 210.107L177.807 207.845C177.779 205.168 178.003 202.494 178.476 199.859C179.246 195.816 180.738 189.902 181.17 186.486L170.964 187.972Z" fill="#FFA8A7"/>
<path d="M172.142 142.755C172.142 142.755 171.1 149.486 170.585 156.033C170.176 161.255 169.91 168.495 169.815 171.212C169.793 171.923 169.808 172.634 169.863 173.344L170.964 187.972C170.964 187.972 177.434 190.813 181.182 186.486C181.182 186.486 181.637 182.295 180.986 179.382C180.605 177.543 180.651 175.641 181.122 173.823L185.178 157.531V142.613L172.142 142.755Z" fill="#37474F"/>
<path d="M175.285 148.337C175.559 149.534 176.155 150.632 177.009 151.514C177.862 152.396 178.941 153.027 180.128 153.34L182.549 168.081L186.101 155.163V148.337H175.285Z" fill="#263238"/>
<path d="M187.871 190.955L191.962 213.517H196.384C196.384 213.517 198.06 194.507 197.971 189.322L187.871 190.955Z" fill="#FFA8A7"/>
<path d="M174.208 142.607C174.208 142.607 173.344 151.315 181.134 152.079L185.178 178.014L187.871 190.95C187.871 190.95 194.182 195.064 197.971 189.316C197.971 189.316 198.356 182.804 196.787 178.316C196.377 177.151 196.208 175.914 196.289 174.681C196.728 168.323 197.935 149.669 197.343 145.537L193.448 140.44L174.208 142.607Z" fill="#37474F"/>
<path d="M188.392 111.888H192.347L194.993 125.096L193.253 130.749C192.885 131.921 192.969 133.188 193.489 134.301C194.673 136.882 196.87 141.926 197.349 145.549C196.242 145.63 195.133 145.409 194.142 144.91C193.15 144.411 192.313 143.651 191.719 142.714C191.719 142.714 188.398 147.088 180.317 147.088C176.398 147.088 173.213 144.205 172.142 142.761L173.592 136.213C173.712 135.682 173.756 135.135 173.722 134.591C173.645 133.236 173.497 130.447 173.533 128.328C173.533 128.328 169.78 126.836 170.745 122.218C171.71 117.601 178.488 110.97 178.488 110.97L181.395 111.083L188.392 111.888Z" fill="#1C71B5"/>
<path d="M178.855 86.432C178.855 86.432 174.06 84.7684 172.888 89.6761C171.716 94.5838 175.327 99.3494 169.928 100.983C169.928 100.983 173.113 103.635 175.919 98.6804L178.287 108.744C178.287 108.744 178.287 109.295 177.446 109.715C177.446 109.715 191.062 112.746 193.685 105.95C194.046 106.341 194.293 106.825 194.397 107.347C194.501 107.869 194.46 108.41 194.277 108.91C194.277 108.91 198.296 107.282 197.166 102.079C197.166 102.079 200.345 101.99 201.102 99.4027C201.102 99.4027 196.017 99.6454 196.047 94.0332C196.082 87.5508 192.672 88.4921 192.672 88.4921C192.672 88.4921 188.499 82.288 178.855 86.432Z" fill="#455A64"/>
<path d="M181.395 106.738V111.065C181.395 111.065 176.913 116.05 181.282 116.446C185.651 116.843 188.386 111.888 188.386 111.888V102.736L181.395 106.738Z" fill="#FFA8A7"/>
<path d="M188.315 101.291V101.54C186.758 107.697 182.703 109.035 181.395 109.348L181.347 99.8231L188.12 99.7876L188.315 101.291Z" fill="#F28F8F"/>
<path d="M181.839 87.6159C179.252 87.829 173.876 89.7175 173.799 96.5314C173.722 103.345 174.758 108.543 178.293 108.756C181.827 108.969 189.718 105.796 190.085 96.9162C190.452 88.0362 184.355 87.3791 181.839 87.6159Z" fill="#FFA8A7"/>
<path d="M178.565 99.2368L178.63 103.239L176.274 102.558L178.565 99.2368Z" fill="#F28F8F"/>
<path d="M182.081 99.1304C182.085 99.2925 182.04 99.4519 181.953 99.5884C181.866 99.725 181.74 99.8324 181.591 99.8972C181.442 99.9619 181.278 99.981 181.118 99.952C180.959 99.9229 180.812 99.8472 180.696 99.7342C180.579 99.6213 180.499 99.4764 180.466 99.3178C180.432 99.1593 180.446 98.9943 180.507 98.8439C180.567 98.6935 180.671 98.5644 180.805 98.4731C180.938 98.3818 181.097 98.3325 181.259 98.3313C181.365 98.3289 181.471 98.3478 181.571 98.3868C181.67 98.4258 181.761 98.4842 181.837 98.5586C181.914 98.633 181.975 98.7218 182.017 98.82C182.059 98.9182 182.081 99.0237 182.081 99.1304Z" fill="#263238"/>
<path d="M176.712 98.6389C176.714 98.7459 176.696 98.8523 176.657 98.952C176.618 99.0517 176.559 99.1427 176.485 99.2197C176.411 99.2968 176.322 99.3584 176.224 99.4009C176.126 99.4435 176.02 99.4662 175.913 99.4677C175.751 99.4712 175.592 99.4266 175.456 99.3395C175.319 99.2524 175.212 99.1268 175.147 98.9785C175.082 98.8303 175.063 98.6661 175.091 98.5069C175.12 98.3476 175.195 98.2004 175.307 98.0839C175.419 97.9674 175.564 97.8869 175.722 97.8526C175.88 97.8182 176.045 97.8317 176.195 97.8911C176.346 97.9506 176.475 98.0534 176.567 98.1865C176.659 98.3197 176.71 98.4771 176.712 98.6389Z" fill="#263238"/>
<path d="M180.767 104.535C179.88 104.762 179.006 105.038 178.151 105.364C178.151 105.364 177.908 103.973 179.062 103.653C179.405 103.581 179.762 103.629 180.072 103.79C180.383 103.951 180.629 104.214 180.767 104.535Z" fill="#F28F8F"/>
<path d="M176.416 95.6257L174.835 96.5907C174.835 96.5907 175.427 97.2182 176.055 96.8275C176.229 96.6867 176.357 96.4967 176.421 96.2824C176.485 96.068 176.484 95.8391 176.416 95.6257Z" fill="#263238"/>
<path d="M185.995 99.1067C185.995 99.1067 185.935 101.629 187.587 101.629H190.825V96.1645C190.825 90.0314 186.172 83.6259 176.274 88.6935C176.274 88.6935 175.694 97.2242 185.995 99.1067Z" fill="#455A64"/>
<path d="M175.084 101.492C173.545 101.492 172.29 100.427 172.29 99.1243C172.29 97.8219 173.545 96.7563 175.084 96.7563C176.623 96.7563 177.878 97.8219 177.878 99.1243C177.878 100.427 176.623 101.492 175.084 101.492ZM175.084 97.2122C173.811 97.2122 172.775 98.0647 172.775 99.1066C172.775 100.149 173.811 101.007 175.084 101.007C176.357 101.007 177.393 100.154 177.393 99.1066C177.393 98.0587 176.357 97.2122 175.084 97.2122Z" fill="#1C71B5"/>
<path d="M181.957 101.51C180.234 101.51 178.825 100.433 178.825 99.1068C178.825 97.7807 180.234 96.7388 181.957 96.7388C183.68 96.7388 185.089 97.8162 185.089 99.1068C185.089 100.397 183.686 101.51 181.957 101.51ZM181.957 97.2242C180.519 97.2242 179.34 98.0708 179.34 99.1068C179.34 100.143 180.524 100.995 181.957 100.995C183.39 100.995 184.574 100.149 184.574 99.1068C184.574 98.0648 183.402 97.2242 181.957 97.2242Z" fill="#1C71B5"/>
<path d="M179.086 98.8521H177.636V99.3671H179.086V98.8521Z" fill="#1C71B5"/>
<path d="M188.576 98.8521H184.834V99.3671H188.576V98.8521Z" fill="#1C71B5"/>
<path d="M187.575 101.297C187.555 100.672 187.677 100.051 187.93 99.4796C188.054 99.1239 188.279 98.8122 188.578 98.5829C188.877 98.3536 189.236 98.2167 189.612 98.1891C191.542 98.1595 191.778 100.018 191.749 100.675C191.66 102.41 190.239 104.269 187.605 104.31L187.575 101.297Z" fill="#FFA8A7"/>
<path d="M192.347 111.888C192.347 111.888 187.836 122.674 194.993 125.095L196.562 121.745C196.562 121.745 209.657 109.751 212.86 107.122C216.062 104.494 211.954 100.61 207.982 96.9696C204.009 93.3288 200.025 89.8064 200.025 89.8064L198.036 86.284C197.817 85.8993 197.52 85.5654 197.162 85.3041C196.805 85.0429 196.397 84.8603 195.964 84.7684C193.88 84.3363 189.955 83.5844 187.836 83.7088C184.876 83.8686 189.345 87.5568 190.097 87.5568C190.775 87.577 191.436 87.7704 192.017 88.1186C192.598 88.4668 193.081 88.9582 193.418 89.5459C194.318 91.1502 194.478 94.0392 197.349 93.9089L204.003 103.849L192.347 111.888Z" fill="#FFA8A7"/>
<path d="M204.003 103.849L206.312 106.803L202.713 104.743L204.003 103.849Z" fill="#F28F8F"/>
<path d="M163.528 125.593L165.582 127.967L164.393 124.332L163.528 125.593Z" fill="#F28F8F"/>
<path opacity="0.2" d="M181.271 128.541C181.271 128.541 187.19 129.02 189.026 123.396C189.026 123.396 189.097 130.566 181.271 128.541Z" fill="black"/>
<path d="M171.71 208.852C171.71 208.852 170.887 206.271 172.16 206.134C173.432 205.998 175.682 206.673 175.907 207.348C176.044 207.794 176.101 208.261 176.073 208.727C176.694 208.517 177.281 208.22 177.819 207.845V206.892C177.819 206.892 179.145 207.022 179.246 208.017C179.346 209.011 179.364 210.225 179.406 211.356C179.483 213.641 179.82 215.168 177.221 215.843C175.368 216.309 173.695 217.314 172.414 218.732C171.526 219.67 170.419 220.374 169.194 220.782C167.968 221.19 166.66 221.289 165.387 221.071C161.474 220.526 161.699 217.223 163.078 216.163C164.404 215.187 165.822 214.342 167.311 213.641L171.71 208.852Z" fill="#1C71B5"/>
<path d="M170.313 216.151C170.254 216.153 170.196 216.137 170.145 216.107C170.095 216.076 170.054 216.032 170.028 215.979C169.4 214.969 168.402 214.244 167.246 213.961C167.204 213.952 167.164 213.934 167.129 213.91C167.093 213.885 167.063 213.854 167.04 213.817C167.017 213.781 167.001 213.74 166.994 213.698C166.987 213.655 166.988 213.612 166.997 213.57C167.006 213.529 167.024 213.489 167.048 213.455C167.072 213.42 167.103 213.391 167.139 213.368C167.175 213.346 167.215 213.33 167.256 213.323C167.298 213.316 167.341 213.318 167.382 213.327C168.049 213.488 168.676 213.78 169.228 214.187C169.78 214.594 170.245 215.106 170.597 215.695C170.624 215.744 170.637 215.799 170.636 215.855C170.635 215.911 170.619 215.966 170.591 216.014C170.562 216.062 170.521 216.101 170.472 216.128C170.423 216.156 170.368 216.169 170.313 216.169V216.151Z" fill="#FAFAFA"/>
<path d="M171.81 214.553C171.751 214.554 171.693 214.539 171.643 214.508C171.593 214.478 171.552 214.434 171.526 214.381C170.898 213.37 169.899 212.646 168.744 212.362C168.66 212.344 168.587 212.293 168.54 212.221C168.494 212.149 168.477 212.061 168.495 211.977C168.504 211.936 168.52 211.896 168.544 211.86C168.568 211.825 168.599 211.795 168.635 211.772C168.671 211.749 168.711 211.733 168.753 211.726C168.795 211.718 168.838 211.719 168.88 211.729C169.547 211.889 170.175 212.181 170.727 212.587C171.279 212.994 171.744 213.507 172.094 214.097C172.135 214.172 172.143 214.261 172.119 214.343C172.095 214.424 172.039 214.494 171.964 214.535C171.915 214.552 171.862 214.558 171.81 214.553Z" fill="#FAFAFA"/>
<path d="M173.308 212.954C173.25 212.954 173.192 212.938 173.142 212.908C173.092 212.878 173.051 212.834 173.024 212.782C172.393 211.775 171.395 211.051 170.242 210.764C170.159 210.744 170.087 210.693 170.042 210.621C169.996 210.549 169.981 210.462 169.999 210.379C170.006 210.337 170.023 210.298 170.046 210.262C170.069 210.227 170.1 210.197 170.135 210.174C170.171 210.151 170.21 210.135 170.252 210.127C170.294 210.12 170.336 210.121 170.378 210.13C171.045 210.291 171.674 210.583 172.227 210.99C172.78 211.396 173.246 211.909 173.598 212.498C173.638 212.575 173.646 212.663 173.62 212.745C173.595 212.827 173.538 212.896 173.462 212.936C173.413 212.954 173.36 212.96 173.308 212.954Z" fill="#FAFAFA"/>
<path d="M191.962 213.517C191.914 213.264 191.924 213.003 191.993 212.755C192.062 212.508 192.188 212.279 192.36 212.088C192.532 211.896 192.746 211.747 192.985 211.652C193.224 211.557 193.482 211.518 193.738 211.539C195.81 211.539 197.29 211.598 197.106 213.138V214.239C197.106 214.239 197.106 219.727 197.521 221.503C197.935 223.279 198.953 228.903 194.727 229.726C190.5 230.548 188.961 226.943 189.73 223.527C190.207 221.602 190.497 219.636 190.594 217.655C190.689 216.406 190.21 211.835 191.583 211.539L191.962 213.517Z" fill="#1C71B5"/>
<path d="M195.834 220.313C195.779 220.312 195.726 220.295 195.68 220.266C194.606 219.751 193.374 219.676 192.246 220.058C192.206 220.073 192.164 220.081 192.122 220.079C192.079 220.078 192.038 220.068 191.999 220.05C191.961 220.033 191.926 220.008 191.897 219.976C191.868 219.945 191.846 219.909 191.832 219.869C191.816 219.829 191.809 219.786 191.811 219.743C191.812 219.701 191.822 219.658 191.839 219.619C191.857 219.58 191.882 219.545 191.913 219.516C191.944 219.487 191.981 219.464 192.021 219.449C192.668 219.226 193.353 219.134 194.036 219.178C194.719 219.222 195.386 219.4 195.999 219.703C196.074 219.746 196.128 219.817 196.15 219.901C196.172 219.984 196.161 220.072 196.118 220.147C196.09 220.198 196.049 220.24 195.999 220.269C195.949 220.299 195.892 220.314 195.834 220.313Z" fill="#FAFAFA"/>
<path d="M196.059 217.856C196.003 217.853 195.949 217.839 195.899 217.814C194.829 217.296 193.597 217.22 192.471 217.601C192.431 217.623 192.387 217.636 192.341 217.64C192.296 217.643 192.25 217.637 192.207 217.621C192.164 217.605 192.125 217.58 192.093 217.548C192.06 217.516 192.035 217.477 192.019 217.434C192.003 217.392 191.996 217.346 191.999 217.3C192.002 217.255 192.014 217.21 192.036 217.17C192.057 217.13 192.087 217.095 192.124 217.067C192.16 217.039 192.202 217.02 192.246 217.009C192.892 216.784 193.576 216.69 194.258 216.734C194.94 216.778 195.607 216.958 196.218 217.264C196.256 217.284 196.288 217.312 196.315 217.345C196.341 217.378 196.361 217.416 196.372 217.457C196.384 217.498 196.387 217.54 196.382 217.582C196.377 217.624 196.364 217.665 196.343 217.702C196.313 217.75 196.271 217.79 196.221 217.817C196.171 217.844 196.115 217.857 196.059 217.856Z" fill="#FAFAFA"/>
<path d="M196.284 215.435C196.228 215.432 196.174 215.418 196.124 215.393C195.05 214.879 193.819 214.803 192.69 215.18C192.65 215.203 192.605 215.217 192.559 215.22C192.513 215.224 192.466 215.218 192.423 215.202C192.38 215.186 192.34 215.161 192.307 215.128C192.274 215.096 192.249 215.056 192.233 215.013C192.217 214.969 192.211 214.923 192.214 214.877C192.218 214.831 192.231 214.786 192.254 214.746C192.277 214.705 192.308 214.67 192.345 214.643C192.383 214.616 192.426 214.597 192.471 214.588C193.117 214.362 193.801 214.268 194.483 214.312C195.165 214.356 195.832 214.536 196.443 214.843C196.481 214.863 196.513 214.891 196.54 214.924C196.566 214.957 196.586 214.995 196.597 215.036C196.609 215.077 196.612 215.119 196.607 215.161C196.602 215.203 196.589 215.244 196.568 215.281C196.538 215.329 196.496 215.369 196.446 215.396C196.396 215.423 196.34 215.436 196.284 215.435Z" fill="#FAFAFA"/>
<path d="M165.831 214.399C164.871 214.923 163.951 215.516 163.078 216.175C161.699 217.234 161.474 220.538 165.387 221.082C167.035 221.354 168.726 221.103 170.224 220.366C170.04 219.086 169.543 217.872 168.776 216.831C168.01 215.79 166.998 214.954 165.831 214.399Z" fill="white"/>
<path d="M177.221 215.34C175.368 215.805 173.695 216.811 172.414 218.229C171.526 219.167 170.419 219.871 169.194 220.279C167.968 220.687 166.66 220.786 165.387 220.567C163.197 220.265 162.303 219.093 162.184 217.933C162.072 219.235 162.877 220.721 165.387 221.071C166.66 221.289 167.968 221.19 169.194 220.782C170.419 220.374 171.526 219.67 172.414 218.732C173.695 217.314 175.368 216.309 177.221 215.843C179.269 215.316 179.494 214.251 179.459 212.706C179.417 213.978 179.039 214.896 177.221 215.34Z" fill="#37474F"/>
<path d="M197.9 223.663C196.831 222.575 195.377 221.95 193.852 221.924C192.326 221.899 190.852 222.475 189.748 223.527C188.978 226.943 190.518 230.548 194.744 229.725C197.811 229.104 198.125 226.014 197.9 223.663Z" fill="#F5F5F5"/>
<path d="M194.768 229.057C191.37 229.72 189.712 227.517 189.588 224.853C189.446 227.813 191.086 230.442 194.768 229.725C197.497 229.193 198.042 226.671 197.977 224.469C197.888 226.487 197.195 228.577 194.768 229.057Z" fill="#455A64"/>
</svg>
