<svg xmlns="http://www.w3.org/2000/svg" width="196" height="196" viewBox="0 0 196 196" fill="none">
  <path d="M97.6278 188.223C149.725 188.223 191.959 163.838 191.959 133.758C191.959 103.678 149.725 79.2937 97.6278 79.2937C45.5302 79.2937 3.29688 103.678 3.29688 133.758C3.29688 163.838 45.5302 188.223 97.6278 188.223Z" fill="#F5F5F5"/>
  <path d="M149.301 168.803C159.738 168.803 168.199 163.919 168.199 157.894C168.199 151.869 159.738 146.984 149.301 146.984C138.863 146.984 130.402 151.869 130.402 157.894C130.402 163.919 138.863 168.803 149.301 168.803Z" fill="#E0E0E0"/>
  <path d="M26.4443 153.005L10.9486 144.06C10.0744 143.554 10.0744 142.739 10.9486 142.233L101.085 90.1913C101.576 89.9451 102.118 89.8169 102.667 89.8169C103.216 89.8169 103.758 89.9451 104.249 90.1913L119.748 99.1407C120.622 99.6425 120.622 100.462 119.748 100.967L29.6117 153.005C29.121 153.255 28.5784 153.385 28.028 153.385C27.4776 153.385 26.935 153.255 26.4443 153.005Z" fill="#E0E0E0"/>
  <path d="M36.8485 20.674L33.3557 22.6967C33.3557 22.5399 33.3832 22.387 33.3832 22.2342V21.2189C33.3832 19.4118 32.117 18.6787 30.549 19.5842C29.877 19.9977 29.3021 20.5513 28.8634 21.2071C28.6047 18.9335 26.825 18.0711 24.6573 19.3373C22.3053 20.6897 20.4197 23.9746 20.4197 26.6794V28.1965C20.4027 28.8027 20.5247 29.4048 20.7765 29.9566L17.8639 31.6382C17.4077 31.9372 17.0281 32.3391 16.7557 32.8116C16.4834 33.2842 16.3259 33.8141 16.2959 34.3587C16.2959 35.3622 17.0015 35.7699 17.8639 35.2682L36.8485 24.3039C37.3049 24.0052 37.6847 23.6034 37.957 23.1308C38.2294 22.6582 38.3868 22.1281 38.4165 21.5834C38.4165 20.5799 37.7265 20.1722 36.8485 20.674Z" fill="#EBEBEB"/>
  <path d="M55.0056 29.0708L52.3596 30.5996C52.3751 30.4826 52.3829 30.3647 52.3831 30.2468V29.4628C52.3831 28.0986 51.4266 27.5459 50.2467 28.228C49.7381 28.5382 49.3034 28.9555 48.9727 29.451C48.7767 27.738 47.4321 27.099 45.7975 28.0437C44.0335 29.0629 42.5988 31.5443 42.5988 33.5827V34.7312C42.5876 35.1877 42.68 35.6407 42.8692 36.0562L40.674 37.3263C40.3307 37.5525 40.0454 37.8563 39.8411 38.2131C39.6368 38.5699 39.5193 38.9698 39.498 39.3804C39.498 40.1369 40.0312 40.4427 40.674 40.0664L55.0056 31.7912C55.3487 31.5648 55.6338 31.2609 55.8381 30.9042C56.0423 30.5474 56.16 30.1477 56.1816 29.7372C56.1933 29.008 55.6641 28.6944 55.0056 29.0708Z" fill="#EBEBEB"/>
  <path d="M82.1472 137.063L95.4752 129.36C96.8511 128.576 97.5371 127.525 97.5371 126.486C97.5371 125.448 97.5371 124.636 97.5371 124.636L83.7152 116.839C83.3294 116.587 83.0084 116.248 82.7782 115.849C82.548 115.45 82.4151 115.002 82.3902 114.542V98.1174L59.1211 111.563V127.988C59.1466 128.448 59.2797 128.895 59.5099 129.294C59.74 129.693 60.0607 130.033 60.446 130.285L72.206 137.063C74.9461 138.646 79.3992 138.646 82.1472 137.063Z" fill="#263238"/>
  <path d="M64.7032 130.897V132.743L60.4382 130.285C60.0532 130.033 59.7329 129.693 59.5034 129.294C59.2739 128.895 59.1416 128.448 59.1172 127.988V111.567L63.5468 109.007C63.6409 110.132 63.7389 111.297 63.8329 112.429L60.7244 114.229V127.063C60.7477 127.523 60.8799 127.972 61.1103 128.371C61.3406 128.77 61.6625 129.109 62.0493 129.36L64.7032 130.897Z" fill="black"/>
  <path d="M60.7246 127.067C60.7495 127.527 60.8824 127.975 61.1126 128.374C61.3428 128.773 61.6638 129.112 62.0496 129.364L72.1984 135.209C74.9424 136.796 79.3995 136.796 82.1474 135.209L95.4754 127.51C98.2194 125.942 98.2194 123.355 95.4754 121.767L85.3187 115.914C84.9322 115.663 84.6107 115.324 84.3804 114.925C84.1502 114.526 84.0176 114.078 83.9937 113.617V100.787L60.7285 114.233L60.7246 127.067Z" fill="#37474F"/>
  <path d="M88.0196 117.478L85.3187 115.91C84.9322 115.659 84.6107 115.32 84.3804 114.921C84.1502 114.522 84.0176 114.074 83.9937 113.613V100.787L60.7246 114.233V127.067C60.7495 127.527 60.8824 127.975 61.1126 128.374C61.3428 128.773 61.6638 129.112 62.0496 129.364L64.7034 130.893L88.0196 117.478Z" fill="#263238"/>
  <path d="M97.5335 124.656V126.51C97.5335 127.549 96.8436 128.584 95.4716 129.379L82.1436 137.078C80.6831 137.857 79.0518 138.262 77.3965 138.254V136.408C79.0521 136.417 80.6838 136.013 82.1436 135.232L95.4716 127.525C96.8436 126.718 97.5335 125.679 97.5335 124.656Z" fill="#455A64"/>
  <path d="M23.3629 143.017C23.8651 143.26 24.4174 143.381 24.9751 143.371C25.5329 143.361 26.0804 143.219 26.5734 142.958L116.561 91.0027C117.044 90.6892 117.446 90.2658 117.734 89.767C118.023 89.2683 118.189 88.7085 118.219 88.1332V15.0997C118.197 14.5411 118.043 13.9956 117.77 13.5073C117.498 13.019 117.115 12.6017 116.651 12.2891C116.149 12.0464 115.597 11.9252 115.039 11.9354C114.481 11.9456 113.934 12.0869 113.441 12.3479L23.4648 64.2879C22.9822 64.6021 22.5806 65.0257 22.2925 65.5243C22.0044 66.0228 21.8379 66.5823 21.8066 67.1573V140.207C21.8278 140.764 21.9797 141.309 22.25 141.797C22.5203 142.285 22.9015 142.703 23.3629 143.017Z" fill="#455A64"/>
  <path d="M26.5732 142.954L116.561 91.0027C117.043 90.6885 117.445 90.2649 117.733 89.7663C118.021 89.2678 118.188 88.7083 118.219 88.1333V15.0998C118.219 14.0414 117.478 13.6141 116.561 14.1433L26.5771 66.095C26.0945 66.4092 25.6929 66.8328 25.4048 67.3314C25.1167 67.83 24.9502 68.3895 24.9189 68.9645V141.998C24.9189 143.056 25.6598 143.472 26.5732 142.954Z" fill="#1C71B5"/>
  <path d="M26.5732 142.954L116.561 91.0027C117.043 90.6885 117.445 90.2649 117.733 89.7663C118.021 89.2678 118.188 88.7083 118.219 88.1333V15.0998C118.219 14.0414 117.478 13.6141 116.561 14.1433L26.5771 66.095C26.0945 66.4092 25.6929 66.8328 25.4048 67.3314C25.1167 67.83 24.9502 68.3895 24.9189 68.9645V141.998C24.9189 143.056 25.6598 143.472 26.5732 142.954Z" fill="#37474F"/>
  <path d="M26.3304 144.848C25.8595 145.051 25.3505 145.15 24.8379 145.139C24.3252 145.129 23.8209 145.008 23.359 144.785C22.895 144.472 22.5112 144.054 22.2387 143.565C21.9663 143.076 21.8129 142.53 21.791 141.971V135.342L24.8996 137.141V143.77C24.9153 144.734 25.5268 145.169 26.3304 144.848Z" fill="#263238"/>
  <path d="M24.915 137.141V143.766C24.915 144.824 25.6559 145.252 26.5693 144.722L116.561 92.7707C117.044 92.4561 117.446 92.0319 117.734 91.5326C118.022 91.0333 118.188 90.473 118.219 89.8973V83.2607L24.915 137.141Z" fill="#37474F"/>
  <path opacity="0.2" d="M24.9189 137.125V143.766C24.9189 144.824 25.6598 145.252 26.5732 144.722L116.561 92.7707C117.044 92.4561 117.446 92.0319 117.734 91.5326C118.022 91.0333 118.188 90.473 118.219 89.8973V83.2607L24.9189 137.125Z" fill="black"/>
  <path d="M28.0273 128.823V69.9993C28.0462 69.6538 28.1462 69.3176 28.3192 69.0179C28.4921 68.7183 28.7333 68.4636 29.023 68.2745L114.111 19.149C114.663 18.8315 115.106 19.0902 115.106 19.7213V78.5488C115.087 78.8943 114.987 79.2304 114.814 79.5301C114.641 79.8298 114.4 80.0845 114.111 80.2736L29.0073 129.399C28.4703 129.717 28.0273 129.458 28.0273 128.823Z" fill="#1C71B5"/>
  <path opacity="0.3" d="M28.0273 128.823V69.9993C28.0462 69.6538 28.1462 69.3176 28.3192 69.0179C28.4921 68.7183 28.7333 68.4636 29.023 68.2745L114.111 19.149C114.663 18.8315 115.106 19.0902 115.106 19.7213V78.5488C115.087 78.8943 114.987 79.2304 114.814 79.5301C114.641 79.8298 114.4 80.0845 114.111 80.2736L29.0073 129.399C28.4703 129.717 28.0273 129.458 28.0273 128.823Z" fill="black"/>
  <path d="M71.567 112.308C71.1122 112.602 70.7332 112.999 70.4608 113.467C70.1883 113.935 70.0301 114.46 69.999 115.001C69.999 115.993 70.6968 116.396 71.567 115.899C72.0222 115.605 72.4016 115.208 72.6741 114.74C72.9466 114.272 73.1046 113.746 73.135 113.205C73.1233 112.214 72.4255 111.81 71.567 112.308Z" fill="#455A64"/>
  <path d="M25.4052 67.3259C25.1099 67.8236 24.9417 68.3863 24.9152 68.9644V137.141L21.8066 135.342V67.173C21.8293 66.5942 21.9979 66.0306 22.2966 65.5344L25.4052 67.3259Z" fill="#263238"/>
  <path d="M130.751 14.755C130.617 14.6876 130.468 14.6583 130.319 14.67C130.169 14.6818 130.026 14.7342 129.905 14.8216L40.2188 66.6166C39.8781 66.8353 39.594 67.1315 39.3896 67.481C39.1853 67.8305 39.0664 68.2234 39.0428 68.6275V129.094C39.029 129.29 39.067 129.486 39.153 129.663C39.239 129.84 39.37 129.991 39.5328 130.101C39.721 130.203 40.7088 130.783 41.0146 130.944C41.1203 130.998 41.2385 131.023 41.357 131.016C41.4756 131.009 41.5901 130.971 41.6888 130.905L131.386 79.09C131.727 78.8715 132.011 78.5754 132.216 78.2258C132.42 77.8763 132.539 77.4833 132.562 77.0791V16.3191C132.582 16.1677 132.559 16.0138 132.495 15.8751C132.431 15.7365 132.329 15.6186 132.202 15.5351C131.982 15.4606 130.963 14.8961 130.751 14.755Z" fill="#1C71B5"/>
  <path d="M41.7043 67.4591L131.386 15.6798C132.029 15.3113 132.562 15.6132 132.562 16.354V77.114C132.539 77.5183 132.42 77.9113 132.216 78.2608C132.011 78.6103 131.727 78.9065 131.386 79.125L41.7043 130.904C41.0614 131.273 40.5283 130.673 40.5283 129.932V69.47C40.5516 69.0658 40.6703 68.6728 40.8747 68.3233C41.0791 67.9737 41.3634 67.6776 41.7043 67.4591Z" fill="#FAFAFA"/>
  <path d="M131.907 15.8955C132.123 15.8955 132.158 16.1699 132.158 16.3345V77.0945C132.137 77.4288 132.039 77.7536 131.871 78.0434C131.703 78.3332 131.47 78.58 131.19 78.7644L41.5083 130.563C41.4528 130.602 41.3875 130.623 41.3202 130.626C41.1163 130.626 40.9282 130.301 40.9282 129.932V69.4701C40.9493 69.1353 41.0477 68.8099 41.2157 68.5195C41.3837 68.2291 41.6167 67.9815 41.8964 67.7963L131.582 16.0013C131.68 15.9393 131.792 15.9029 131.907 15.8955ZM131.907 15.5035C131.723 15.5104 131.544 15.5644 131.386 15.6603L41.7043 67.4592C41.3634 67.6777 41.0791 67.9738 40.8747 68.3233C40.6703 68.6729 40.5516 69.0659 40.5283 69.4701V129.932C40.5283 130.52 40.8537 131.018 41.3123 131.018C41.4509 131.017 41.5865 130.977 41.7043 130.904L131.386 79.0898C131.727 78.8713 132.011 78.5751 132.216 78.2256C132.42 77.8761 132.539 77.4831 132.562 77.0788V16.3188C132.562 15.7896 132.299 15.4878 131.919 15.4878L131.907 15.5035Z" fill="#E0E0E0"/>
  <path d="M39.545 130.101C39.6704 130.167 40.5759 130.685 40.9718 130.908C40.8288 130.791 40.7156 130.641 40.6413 130.471C40.5671 130.302 40.5339 130.117 40.5446 129.932V73.2687L39.055 72.3984V129.093C39.0427 129.289 39.0814 129.485 39.1672 129.662C39.2531 129.838 39.3832 129.99 39.545 130.101Z" fill="#F0F0F0"/>
  <path d="M132.55 16.3228C132.55 15.5897 132.025 15.2918 131.374 15.6603L41.7043 67.4592C41.3634 67.6777 41.0791 67.9738 40.8747 68.3234C40.6703 68.6729 40.5516 69.0659 40.5283 69.4701V73.2686L132.55 20.1369V16.3228Z" fill="#1C71B5"/>
  <g opacity="0.4">
    <path d="M131.386 15.6799L41.7043 67.4592C41.3619 67.6717 41.0797 67.9686 40.8851 68.3216L39.4111 67.467C39.6029 67.1189 39.881 66.826 40.2187 66.6164L129.904 14.8214C130.025 14.7345 130.168 14.682 130.316 14.6696C130.464 14.6572 130.613 14.6853 130.747 14.7508C130.955 14.8802 131.923 15.429 132.166 15.5584C132.036 15.5144 131.897 15.5025 131.761 15.5236C131.625 15.5448 131.497 15.5984 131.386 15.6799Z" fill="white"/>
  </g>
  <path opacity="0.15" d="M39.0547 72.4024V68.6274C39.0693 68.2111 39.1922 67.8057 39.4114 67.4514L40.8892 68.3021C40.6763 68.6498 40.5574 69.047 40.5443 69.4545V73.253L39.0547 72.4024Z" fill="black"/>
  <path d="M40.544 73.2687L40.54 80.113L132.546 26.9891V20.137L40.544 73.2687Z" fill="#EBEBEB"/>
  <path d="M44.374 72.763L50.3246 69.3447V72.7512L44.3701 76.189L44.374 72.763Z" fill="#E0E0E0"/>
  <path d="M51.7949 68.4784V69.8269L54.7624 68.1099V66.7654L51.7949 68.4784Z" fill="#E0E0E0"/>
  <path d="M51.7949 70.56V71.9084L54.7624 70.1915V68.8469L51.7949 70.56Z" fill="#E0E0E0"/>
  <path d="M56.248 65.9069V67.2554L59.2155 65.5423V64.1938L56.248 65.9069Z" fill="#E0E0E0"/>
  <path d="M56.248 67.9884V69.3369L59.2155 67.6239V66.2754L56.248 67.9884Z" fill="#E0E0E0"/>
  <path d="M60.6973 63.3354V64.6838L63.6647 62.9708V61.6223L60.6973 63.3354Z" fill="#E0E0E0"/>
  <path d="M60.6973 65.4169V66.7654L63.6647 65.0523V63.7039L60.6973 65.4169Z" fill="#E0E0E0"/>
  <path d="M74.0527 55.6247V56.9731L77.0202 55.2601V53.9116L74.0527 55.6247Z" fill="#E0E0E0"/>
  <path d="M74.0527 57.7101V59.0547L77.0202 57.3416V55.9932L74.0527 57.7101Z" fill="#E0E0E0"/>
  <path d="M78.5059 53.057V54.4016L81.4733 52.6886V51.3401L78.5059 53.057Z" fill="#E0E0E0"/>
  <path d="M78.5059 55.1386V56.4832L81.4733 54.7701V53.4216L78.5059 55.1386Z" fill="#E0E0E0"/>
  <path d="M82.9551 50.4855L82.959 51.834L85.9264 50.1209V48.7725L82.9551 50.4855Z" fill="#E0E0E0"/>
  <path d="M82.9551 52.567L82.959 53.9155L85.9264 52.1986V50.854L82.9551 52.567Z" fill="#E0E0E0"/>
  <path d="M65.1504 60.7677L72.571 56.4832V59.9092L65.1504 64.1938V60.7677Z" fill="#E0E0E0"/>
  <path d="M87.4121 47.9141L93.3627 44.4958V47.9062L87.4082 51.3441L87.4121 47.9141Z" fill="#E0E0E0"/>
  <path d="M94.8281 43.6295L94.832 44.978L97.7995 43.265V41.9165L94.8281 43.6295Z" fill="#E0E0E0"/>
  <path d="M94.8281 45.7111L94.832 47.0596L97.7995 45.3465V43.998L94.8281 45.7111Z" fill="#E0E0E0"/>
  <path d="M99.2812 41.0619V42.4104L102.249 40.6934V39.345L99.2812 41.0619Z" fill="#E0E0E0"/>
  <path d="M99.2812 43.1435V44.492L102.249 42.775V41.4265L99.2812 43.1435Z" fill="#E0E0E0"/>
  <path d="M103.734 38.4904V39.8389L106.702 38.1219V36.7734L103.734 38.4904Z" fill="#E0E0E0"/>
  <path d="M103.734 40.5719V41.9204L106.702 40.2034V38.8589L103.734 40.5719Z" fill="#E0E0E0"/>
  <path d="M117.09 30.7797V32.1282L120.057 30.4112V29.0627L117.09 30.7797Z" fill="#E0E0E0"/>
  <path d="M117.09 32.8612V34.2097L120.057 32.4928V31.1482L117.09 32.8612Z" fill="#E0E0E0"/>
  <path d="M121.543 28.2082V29.5566L124.51 27.8436V26.4951L121.543 28.2082Z" fill="#E0E0E0"/>
  <path d="M121.543 30.2897V31.6382L124.51 29.9251V28.5767L121.543 30.2897Z" fill="#E0E0E0"/>
  <path d="M125.992 25.6366V26.9851L128.964 25.2721V23.9236L125.992 25.6366Z" fill="#E0E0E0"/>
  <path d="M125.992 27.7182V29.0666L128.964 27.3536V26.0051L125.992 27.7182Z" fill="#E0E0E0"/>
  <path d="M108.188 35.9188L115.608 31.6343V35.0643L108.188 39.3449V35.9188Z" fill="#E0E0E0"/>
  <path d="M40.5443 73.2687L39.0547 72.3984V79.2545L40.5404 80.113L40.5443 73.2687Z" fill="#E0E0E0"/>
  <path d="M108.807 31.1482V31.403C108.807 31.795 109.089 31.9675 109.438 31.7676L127.47 21.36C127.654 21.2393 127.807 21.0771 127.916 20.8864C128.026 20.6958 128.089 20.482 128.101 20.2624V20.0115C128.101 19.6195 127.819 19.4431 127.47 19.647L109.438 30.0546C109.254 30.1742 109.101 30.3356 108.991 30.5257C108.881 30.7158 108.818 30.9291 108.807 31.1482Z" fill="#F5F5F5"/>
  <path d="M128.097 20.2624V20.0115C128.097 19.6195 127.815 19.4431 127.466 19.647L125.114 20.9954V22.7085L127.466 21.36C127.65 21.2393 127.803 21.0771 127.913 20.8864C128.022 20.6958 128.086 20.482 128.097 20.2624Z" fill="#455A64"/>
  <path d="M42.0264 80.9637L131.069 29.5647V32.9829L49.443 80.1131V124.664L42.0264 128.945V80.9637Z" fill="#F0F0F0"/>
  <path d="M49.4424 80.1129L56.859 75.8323V79.2505L49.4424 83.539V80.1129Z" fill="#1C71B5"/>
  <path d="M49.4424 107.526L56.859 103.245V106.663L49.4424 110.952V107.526Z" fill="#1C71B5"/>
  <path d="M49.4424 110.952L56.859 106.671V110.089L49.4424 114.378V110.952Z" fill="#1C71B5"/>
  <path opacity="0.8" d="M49.4424 110.952L56.859 106.671V110.089L49.4424 114.378V110.952Z" fill="white"/>
  <path d="M93.958 81.8221L101.375 77.5415V80.9597L93.958 85.2482V81.8221Z" fill="#1C71B5"/>
  <path opacity="0.3" d="M93.958 81.8221L101.375 77.5415V80.9597L93.958 85.2482V81.8221Z" fill="black"/>
  <path d="M93.958 85.2482L101.375 80.9675V84.3858L93.958 88.6743V85.2482Z" fill="#1C71B5"/>
  <path opacity="0.4" d="M93.958 85.2482L101.375 80.9675V84.3858L93.958 88.6743V85.2482Z" fill="black"/>
  <path d="M93.958 88.6781L101.375 84.3975V87.8157L93.958 92.1042V88.6781Z" fill="#1C71B5"/>
  <path opacity="0.5" d="M93.958 88.6781L101.375 84.3975V87.8157L93.958 92.1042V88.6781Z" fill="black"/>
  <path d="M93.958 92.1044L101.375 87.8237V91.242L93.958 95.5305V92.1044Z" fill="#1C71B5"/>
  <path opacity="0.3" d="M93.958 92.1044L101.375 87.8237V91.242L93.958 95.5305V92.1044Z" fill="black"/>
  <path d="M86.5459 58.6903L93.9586 54.4097V71.544L86.5459 75.8325V58.6903Z" fill="#1C71B5"/>
  <path d="M86.5459 79.2545L93.9586 74.9739V98.9604L86.5459 103.249V79.2545Z" fill="#1C71B5"/>
  <path d="M56.8594 96.3888L64.2721 92.1082V95.5264L56.8594 99.8149V96.3888Z" fill="#1C71B5"/>
  <path opacity="0.3" d="M56.8594 96.3888L64.2721 92.1082V95.5264L56.8594 99.8149V96.3888Z" fill="black"/>
  <path d="M71.7041 70.6854L79.1207 66.4048V69.823L71.7041 74.1115V70.6854Z" fill="#1C71B5"/>
  <path opacity="0.6" d="M71.7041 70.6854L79.1207 66.4048V69.823L71.7041 74.1115V70.6854Z" fill="white"/>
  <path d="M108.807 69.827L116.219 65.5464V68.9646L108.807 73.2531V69.827Z" fill="#1C71B5"/>
  <path opacity="0.8" d="M108.807 69.827L116.219 65.5464V68.9646L108.807 73.2531V69.827Z" fill="white"/>
  <path d="M108.807 76.683L116.219 72.4023V75.8206L108.807 80.1091V76.683Z" fill="#1C71B5"/>
  <path d="M41.9437 80.8108L41.8535 80.8617V129.266L131.155 77.6983L131.249 77.6473V29.2432L41.9437 80.8108ZM130.892 74.0174L123.836 78.0903V75.0836L130.892 71.0147V74.0174ZM42.2102 84.4995L49.2662 80.4266V83.4332L42.2102 87.5061V84.4995ZM86.3651 79.576V82.5826L79.3091 86.6555V83.6488L86.3651 79.576ZM79.3091 83.2255V80.2188L86.3651 76.146V79.1526L79.3091 83.2255ZM86.7297 79.3643L93.7857 75.2914V78.298L86.7297 82.3709V79.3643ZM86.7297 78.9409V75.9382L93.7857 71.8614V74.872L86.7297 78.9409ZM86.7297 75.5148V72.52L93.7857 68.4471V71.4537L86.7297 75.5148ZM86.7297 72.0848V69.0821L93.7857 65.0053V68.012L86.7297 72.0848ZM86.3651 72.2965L79.3091 76.3694V73.3628L86.3651 69.2899V72.2965ZM86.3651 72.7199V75.7265L79.3091 79.7994V76.7928L86.3651 72.7199ZM78.9446 80.0111L71.8886 84.084V81.0773L78.9446 77.0044V80.0111ZM78.9446 80.4305V83.4372L71.8886 87.51V84.5034L78.9446 80.4305ZM78.9446 83.8605V86.8672L71.8886 90.94V87.9334L78.9446 83.8605ZM78.9446 87.2866V90.2932L71.8886 94.3661V91.3595L78.9446 87.2866ZM79.3091 87.0749L86.3651 83.002V86.0087L79.3091 90.0816V87.0749ZM86.3651 86.432V89.4387L79.3091 93.5116V90.5049L86.3651 86.432ZM86.7297 86.2204L93.7857 82.1475V85.1541L86.7297 89.227V86.2204ZM86.7297 85.797V82.7904L93.7857 78.7175V81.7241L86.7297 85.797ZM94.1502 78.5097L101.206 74.4368V77.4435L94.1502 81.5164V78.5097ZM94.1502 78.0864V75.0797L101.206 71.0068V74.0135L94.1502 78.0864ZM94.1502 74.6603V71.6536L101.206 67.5808V70.5874L94.1502 74.6603ZM94.1502 71.2303V68.208L101.206 64.1351V67.1417L94.1502 71.2303ZM94.1502 67.8042V64.7976L101.206 60.7247V63.7274L94.1502 67.8042ZM94.1502 64.3742V61.3676L101.206 57.2947V60.3013L94.1502 64.3742ZM93.7857 64.5859L86.7297 68.6588V65.6521L93.7857 61.5792V64.5859ZM86.3651 68.8704L79.3091 72.9433V69.9367L86.3651 65.8638V68.8704ZM78.9446 73.155L71.8886 77.2279V74.2212L78.9446 70.1484V73.155ZM78.9446 73.5744V76.5811L71.8886 80.654V77.6473L78.9446 73.5744ZM71.524 80.8656L64.468 84.9385V81.928L71.524 77.8551V80.8656ZM71.524 81.289V84.28L64.468 88.3568V85.3501L71.524 81.289ZM71.524 84.7151V87.7217L64.468 91.7946V88.788L71.524 84.7151ZM71.524 88.1451V91.1478L64.468 95.2246V92.218L71.524 88.1451ZM71.524 91.5712V94.5778L64.468 98.6507V95.648L71.524 91.5712ZM71.524 95.0012V98L64.468 102.077V99.0701L71.524 95.0012ZM71.8886 94.7895L78.9446 90.7166V93.7232L71.8886 97.7961V94.7895ZM78.9446 94.1427V97.1493L71.8886 101.222V98.2156L78.9446 94.1427ZM79.3091 93.931L86.3651 89.8581V92.8648L79.3091 96.9376V93.931ZM86.7297 89.6464L93.7857 85.5736V88.592L86.7297 92.6648V89.6464ZM94.1502 85.3658L101.206 81.2929V84.2996L94.1502 88.3724V85.3658ZM94.1502 84.9424V81.928L101.206 77.8551V80.8617L94.1502 84.9424ZM101.571 77.6512L108.627 73.5784V76.585L101.571 80.6579V77.6512ZM101.571 77.2318V74.2252L108.627 70.1523V73.1589L101.571 77.2318ZM101.571 73.8018V70.7952L108.627 66.7223V69.7289L101.571 73.8018ZM101.571 70.3757V67.3691L108.627 63.2962V66.3028L101.571 70.3757ZM101.571 66.9457V63.9391L108.627 59.8662V62.8728L101.571 66.9457ZM101.571 63.5196V60.513L108.627 56.4401V59.4468L101.571 63.5196ZM101.571 60.0896V57.083L108.627 53.0101V56.0168L101.571 60.0896ZM101.571 56.6636V53.6569L108.627 49.584V52.5907L101.571 56.6636ZM101.206 56.8713L94.1502 60.9481V57.9415L101.206 53.8686V56.8713ZM93.7857 61.152L86.7297 65.2248V62.2221L93.7857 58.1453V61.152ZM86.3651 65.4365L79.3091 69.5094V66.5028L86.3651 62.4299V65.4365ZM78.9446 69.7211L71.8886 73.794V70.7873L78.9446 66.7144V69.7211ZM71.524 74.0096L64.468 78.0824V75.0758L71.524 71.0029V74.0096ZM71.524 74.4329V77.4356L64.468 81.5124V78.5058L71.524 74.4329ZM64.1034 81.7202L57.0474 85.7931V82.7904L64.1034 78.7136V81.7202ZM64.1034 82.1436V85.1502L57.0474 89.2231V86.2164L64.1034 82.1436ZM64.1034 85.5696V88.592L57.0474 92.6648V89.6582L64.1034 85.5696ZM64.1034 88.9996V92.0063L57.0474 96.0792V93.0725L64.1034 88.9996ZM64.1034 92.4257V95.4324L57.0474 99.5052V96.5025L64.1034 92.4257ZM64.1034 95.8557V98.8624L57.0474 102.935V99.9286L64.1034 95.8557ZM64.1034 99.2818V102.288L57.0474 106.361V103.359L64.1034 99.2818ZM64.1034 102.712V105.718L57.0474 109.791V106.785L64.1034 102.712ZM64.468 102.5L71.524 98.4272V101.434L64.468 105.507V102.5ZM71.524 101.857V104.864L64.468 108.937V105.93L71.524 101.857ZM71.8886 101.646L78.9446 97.5727V100.579L71.8886 104.652V101.646ZM79.3091 97.361L86.3651 93.2881V96.2948L79.3091 100.368V97.361ZM86.7297 93.0764L93.7857 89.0036V92.0102L86.7297 96.0831V93.0764ZM94.1502 88.7919L101.206 84.719V87.7256L94.1502 91.7985V88.7919ZM101.571 84.5073L108.627 80.4344V83.4411L101.571 87.514V84.5073ZM101.571 84.0879V81.0812L108.627 77.0084V80.015L101.571 84.0879ZM108.976 76.7967L116.032 72.7238V75.7304L108.976 79.8033V76.7967ZM108.976 76.3733V73.3667L116.032 69.2938V72.3004L108.976 76.3733ZM108.976 72.9472V69.9406L116.032 65.856V68.8626L108.976 72.9472ZM108.976 69.5172V66.5106L116.032 62.4377V65.464L108.976 69.5172ZM108.976 66.0912V63.0845L116.032 59.0116V62.0183L108.976 66.0912ZM108.976 62.6612V59.6545L116.032 55.5816V58.5883L108.976 62.6612ZM108.976 59.2351V56.2284L116.032 52.1556V55.1622L108.976 59.2351ZM108.976 55.8051V52.7984L116.032 48.7256V51.744L108.976 55.8051ZM108.976 52.379V49.392L116.032 45.3191V48.3257L108.976 52.379ZM108.976 48.949V45.9424L116.032 41.8695V44.8761L108.976 48.949ZM108.611 49.1607L101.555 53.2336V50.2269L108.611 46.154V49.1607ZM101.191 53.4452L94.1346 57.5181V54.5115L101.191 50.4386V53.4452ZM93.77 57.7298L86.714 61.8027V58.8L93.77 54.7271V57.7298ZM86.3651 62.0144L79.3091 66.0872V63.0806L86.3651 59.0077V62.0144ZM78.9446 66.2989L71.8886 70.3718V67.3652L78.9446 63.2923V66.2989ZM71.524 70.5796L64.468 74.6564V71.6497L71.524 67.5768V70.5796ZM64.1034 74.872L57.0474 78.9448V75.9421L64.1034 71.8653V74.872ZM64.1034 75.2953V78.302L57.0474 82.3748V79.3682L64.1034 75.2953ZM56.6829 82.5865L49.6269 86.6594V83.6528L56.6829 79.5799V82.5865ZM56.6829 83.006V86.0126L49.6269 90.0855V87.0788L56.6829 83.006ZM56.6829 86.436V89.4426L49.6269 93.5155V90.5088L56.6829 86.436ZM56.6829 89.862V92.8687L49.6269 96.9416V93.9349L56.6829 89.862ZM56.6829 93.292V96.2987L49.6269 100.352V97.3453L56.6829 93.292ZM56.6829 96.7181V99.7248L49.6269 103.798V100.783L56.6829 96.7181ZM56.6829 100.148V103.155L49.6269 107.228V104.221L56.6829 100.148ZM56.6829 103.574V106.581L49.6269 110.654V107.647L56.6829 103.574ZM56.6829 107.004V110.011L49.6269 114.072V111.065L56.6829 107.004ZM56.6829 110.43V113.437L49.6269 117.51V114.503L56.6829 110.43ZM57.0474 110.223L64.1034 106.146V109.152L57.0474 113.225V110.223ZM64.1034 109.576V112.582L57.0474 116.655V113.641L64.1034 109.576ZM64.468 109.364L71.524 105.291V108.298L64.468 112.371V109.364ZM71.8886 105.056L78.9446 100.983V103.99L71.8886 108.063V105.056ZM79.3091 100.771L86.3651 96.6985V99.7052L79.3091 103.778V100.771ZM86.7297 96.4908L93.7857 92.414V95.4206L86.7297 99.4935V96.4908ZM94.1502 92.2062L101.206 88.1333V91.14L94.1502 95.2128V92.2062ZM101.571 87.9216L108.627 83.8488V86.8554L101.571 90.9283V87.9216ZM108.976 83.6528L116.032 79.576V82.5826L108.976 86.6555V83.6528ZM108.976 83.2294V80.2228L116.032 76.1499V79.1565L108.976 83.2294ZM116.424 75.9421L123.48 71.8653V74.872L116.424 78.9448V75.9421ZM116.424 75.5188V72.52L123.48 68.4471V71.4537L116.424 75.5188ZM116.424 72.0888V69.086L123.48 65.0092V68.0159L116.424 72.0888ZM116.424 68.6627V65.656L123.48 61.5832V64.5898L116.424 68.6627ZM116.424 65.2327V62.23L123.48 58.1532V61.152L116.424 65.2327ZM116.424 61.8066V58.8L123.48 54.7271V57.7337L116.424 61.8066ZM116.424 58.3766V55.3739L123.48 51.2971V54.3037L116.424 58.3766ZM116.424 54.9505V51.9439L123.48 47.871V50.8776L116.424 54.9505ZM116.424 51.5205V48.5178L123.48 44.441V47.432L116.424 51.5205ZM116.424 48.0944V45.08L123.48 41.0071V44.0137L116.424 48.0944ZM116.424 44.6644V41.6617L123.48 37.5849V40.5916L116.424 44.6644ZM116.424 41.2384V38.2317L123.48 34.1588V37.1655L116.424 41.2384ZM116.055 41.45L108.999 45.5229V42.5163L116.055 38.4434V41.45ZM108.639 45.7346L101.583 49.8075V46.8008L108.639 42.728V45.7346ZM101.218 50.0152L94.162 54.092V51.0854L101.218 47.0125V50.0152ZM93.7974 54.2998L86.7414 58.3727V55.37L93.7974 51.2971V54.2998ZM86.3769 58.5844L79.3209 62.6572V59.6545L86.3769 55.5816V58.5844ZM78.9563 62.8689L71.9003 66.9418V63.9391L78.9563 59.8662V62.8689ZM71.5358 67.1535L64.4798 71.2264V68.208L71.5358 64.1351V67.1535ZM64.1152 71.438L57.0592 75.5109V72.52L64.1152 68.4432V71.438ZM56.6829 75.7226L49.6269 79.7955V76.7888L56.6829 72.716V75.7226ZM56.6829 76.142V79.1487L49.6269 83.2216V80.2149L56.6829 76.142ZM42.2102 87.9295L49.2662 83.8566V86.8632L42.2102 90.9361V87.9295ZM42.2102 91.3556L49.2662 87.2827V90.2893L42.2102 94.3622V91.3556ZM42.2102 94.7856L49.2662 90.7127V93.7193L42.2102 97.7922V94.7856ZM42.2102 98.2116L49.2662 94.1388V97.1454L42.2102 101.218V98.2116ZM42.2102 101.642L49.2662 97.5688V100.575L42.2102 104.648V101.642ZM42.2102 105.068L49.2662 100.995V104.001L42.2102 108.074V105.068ZM42.2102 108.498L49.2662 104.425V107.431L42.2102 111.504V108.498ZM42.2102 111.924L49.2662 107.851V110.858L42.2102 114.93V111.924ZM42.2102 115.354L49.2662 111.281V114.288L42.2102 118.36V115.354ZM42.2102 118.78L49.2662 114.707V117.714L42.2102 121.787V118.78ZM42.2102 122.21L49.2662 118.137V121.128L42.2102 125.201V122.21ZM49.6269 117.925L56.6829 113.852V116.859L49.6269 120.932V117.925ZM56.6829 117.279V120.273L49.6269 124.35V121.351L56.6829 117.279ZM57.0474 117.067L64.1034 112.994V115.993L57.0474 120.066V117.067ZM64.468 112.786L71.524 108.713V111.72L64.468 115.793V112.786ZM71.8886 108.502L78.9446 104.429V107.408L71.8886 111.481V108.502ZM79.3091 104.217L86.3651 100.144V103.139L79.3091 107.212V104.217ZM86.7297 99.9325L93.7857 95.8596V98.8545L86.7297 102.927V99.9325ZM94.1502 95.648L101.206 91.5751V94.57L94.1502 98.6428V95.648ZM101.571 91.3634L108.627 87.2905V90.2854L101.571 94.3583V91.3634ZM108.976 87.0788L116.032 83.006V86.0008L108.976 90.0737V87.0788ZM116.424 82.7982L123.48 78.7214V81.7163L116.424 85.7892V82.7982ZM116.424 82.3748V79.3682L123.48 75.2953V78.302L116.424 82.3748ZM130.896 70.5913L123.84 74.6642V71.6576L130.896 67.5847V70.5913ZM130.896 67.1613L123.84 71.2342V68.2276L130.896 64.1586V67.1613ZM130.896 63.7352L123.832 67.816V64.8093L130.888 60.7364L130.896 63.7352ZM130.896 60.3052L123.84 64.3781V61.3715L130.896 57.2986V60.3052ZM130.896 56.8792L123.84 60.952V57.9454L130.896 53.8725V56.8792ZM130.896 53.4492L123.84 57.522V54.5154L130.896 50.4425V53.4492ZM130.896 50.0231L123.832 54.096V51.0893L130.888 47.0164L130.896 50.0231ZM130.896 46.5931L123.84 50.666V47.6593L130.896 43.5864V46.5931ZM130.896 43.167L123.84 47.2399V44.2332L130.896 40.1604V43.167ZM130.896 39.737L123.84 43.8099V40.8032L130.896 36.7304V39.737ZM130.896 36.3109L123.832 40.376V37.3772L130.888 33.3043L130.896 36.3109ZM130.896 32.8809L123.84 36.9538V33.9511L130.896 29.8782V32.8809ZM49.2623 77.0005V80.0072L42.2063 84.0761V81.0734L49.2623 77.0005ZM42.2063 125.636L49.2623 121.563V124.558L42.2063 128.631V125.636ZM123.832 81.5085V78.5136L130.888 74.4408V77.4356L123.832 81.5085Z" fill="#E0E0E0"/>
  <path d="M101.375 50.1172L131.069 32.9868V50.129L101.375 67.2515V50.1172Z" fill="#FAFAFA"/>
  <path d="M101.175 67.5925V50.0035L101.273 49.9486L131.261 32.6497V50.2426L101.175 67.5925ZM101.567 50.2309V66.9144L130.869 50.0153V33.32L101.567 50.2309Z" fill="#E0E0E0"/>
  <path d="M102.872 63.1119H102.825C102.788 63.0978 102.758 63.0699 102.741 63.034C102.724 62.9982 102.722 62.9573 102.735 62.9198L106.749 51.9438C106.757 51.9241 106.769 51.9062 106.784 51.8915C106.799 51.8768 106.818 51.8655 106.838 51.8585C106.858 51.8514 106.879 51.8488 106.9 51.8506C106.921 51.8525 106.942 51.8589 106.96 51.8693L111.3 54.4879L115.679 50.0269C115.705 50.0053 115.738 49.9935 115.773 49.9935C115.807 49.9935 115.84 50.0053 115.867 50.0269L120.179 52.8611L124.557 42.0733C124.565 42.0546 124.577 42.0377 124.592 42.0237C124.607 42.0097 124.624 41.9989 124.643 41.992C124.662 41.985 124.683 41.982 124.703 41.9832C124.723 41.9843 124.743 41.9896 124.761 41.9988L129.21 44.2802C129.227 44.289 129.242 44.301 129.255 44.3156C129.267 44.3302 129.277 44.347 129.282 44.3652C129.288 44.3834 129.29 44.4026 129.289 44.4216C129.287 44.4407 129.282 44.4592 129.273 44.4762C129.264 44.4932 129.252 44.5083 129.238 44.5206C129.223 44.533 129.206 44.5423 129.188 44.5482C129.17 44.554 129.151 44.5562 129.132 44.5546C129.113 44.553 129.094 44.5477 129.077 44.5389L124.765 42.332L120.375 53.1394C120.366 53.1594 120.354 53.1773 120.337 53.1916C120.321 53.2058 120.302 53.2162 120.281 53.2217C120.262 53.2314 120.241 53.2364 120.22 53.2364C120.199 53.2364 120.178 53.2314 120.159 53.2217L115.808 50.3562L111.433 54.8133C111.41 54.8365 111.38 54.8515 111.347 54.8557C111.314 54.86 111.281 54.8533 111.253 54.8368L106.968 52.2731L103.017 63.0649C102.999 63.0847 102.976 63.0995 102.951 63.1077C102.925 63.116 102.898 63.1174 102.872 63.1119Z" fill="#455A64"/>
  <path d="M106.886 51.501C106.755 51.5867 106.646 51.7026 106.568 51.8389C106.49 51.9753 106.446 52.1282 106.439 52.285C106.439 52.5711 106.639 52.6769 106.886 52.5437C107.018 52.4576 107.126 52.3417 107.204 52.2054C107.282 52.0692 107.326 51.9164 107.333 51.7597C107.333 51.4735 107.133 51.352 106.886 51.501Z" fill="#1C71B5"/>
  <path d="M111.328 54.1509C111.197 54.2373 111.088 54.3534 111.011 54.4896C110.933 54.6258 110.889 54.7783 110.881 54.9349C110.881 55.221 111.081 55.3269 111.328 55.1936C111.458 55.1071 111.567 54.9911 111.645 54.8549C111.722 54.7187 111.767 54.5662 111.775 54.4096C111.782 54.1273 111.583 54.0097 111.328 54.1509Z" fill="#1C71B5"/>
  <path d="M115.785 49.6076C115.654 49.6941 115.545 49.8102 115.468 49.9463C115.39 50.0825 115.346 50.2351 115.338 50.3916C115.338 50.6778 115.538 50.7837 115.785 50.6504C115.916 50.5643 116.025 50.4484 116.103 50.3121C116.18 50.1758 116.224 50.0231 116.232 49.8664C116.232 49.5841 116.032 49.4665 115.785 49.6076Z" fill="#1C71B5"/>
  <path d="M120.234 52.528C120.103 52.6138 119.994 52.7297 119.916 52.866C119.838 53.0024 119.794 53.1553 119.787 53.312C119.787 53.5982 119.987 53.704 120.234 53.5708C120.365 53.485 120.474 53.3691 120.552 53.2328C120.63 53.0964 120.674 52.9435 120.681 52.7868C120.681 52.528 120.481 52.3987 120.234 52.528Z" fill="#1C71B5"/>
  <path d="M124.683 41.5873C124.552 41.6731 124.443 41.789 124.365 41.9253C124.287 42.0617 124.243 42.2146 124.236 42.3713C124.236 42.6575 124.436 42.7633 124.683 42.6301C124.814 42.544 124.923 42.4281 125.001 42.2918C125.079 42.1555 125.123 42.0028 125.13 41.8461C125.13 41.5521 124.93 41.4423 124.683 41.5873Z" fill="#1C71B5"/>
  <path d="M129.132 43.8686C129.001 43.9544 128.892 44.0703 128.814 44.2066C128.737 44.3429 128.692 44.4958 128.686 44.6526C128.686 44.9388 128.885 45.0446 129.132 44.9113C129.264 44.8255 129.373 44.7097 129.451 44.5733C129.528 44.437 129.572 44.2841 129.579 44.1273C129.579 43.8412 129.379 43.7236 129.132 43.8686Z" fill="#1C71B5"/>
  <path d="M143.421 96.1145L135.526 100.673L143.421 105.232L151.316 100.673L143.421 96.1145Z" fill="#455A64"/>
  <path d="M151.316 100.666V118.796L143.421 123.354V105.236L151.316 100.666Z" fill="#37474F"/>
  <path d="M143.421 105.236V123.354L135.526 118.796V100.666L143.421 105.236Z" fill="#263238"/>
  <path d="M133.034 109.976L125.139 114.535L133.034 119.094L140.928 114.535L133.034 109.976Z" fill="#1C71B5"/>
  <path opacity="0.3" d="M133.034 109.976L125.139 114.535L133.034 119.094L140.928 114.535L133.034 109.976Z" fill="white"/>
  <path d="M140.928 114.523V124.793L133.033 129.352V119.093L140.928 114.523Z" fill="#1C71B5"/>
  <path d="M133.034 119.094V129.352L125.139 124.793V114.527L133.034 119.094Z" fill="#1C71B5"/>
  <path opacity="0.1" d="M133.034 119.094V129.352L125.139 124.793V114.527L133.034 119.094Z" fill="black"/>
  <path d="M122.645 111.708L114.75 116.267L122.645 120.826L130.54 116.267L122.645 111.708Z" fill="#1C71B5"/>
  <path opacity="0.88" d="M122.645 111.708L114.75 116.267L122.645 120.826L130.54 116.267L122.645 111.708Z" fill="white"/>
  <path d="M130.54 116.259V130.791L122.646 135.35V120.826L130.54 116.259Z" fill="#1C71B5"/>
  <path opacity="0.75" d="M130.54 116.259V130.791L122.646 135.35V120.826L130.54 116.259Z" fill="white"/>
  <path d="M122.645 120.826V135.35L114.75 130.791V116.259L122.645 120.826Z" fill="#1C71B5"/>
  <path opacity="0.6" d="M122.645 120.826V135.35L114.75 130.791V116.259L122.645 120.826Z" fill="white"/>
  <path d="M112.257 127.106L104.362 131.665L112.257 136.224L120.152 131.665L112.257 127.106Z" fill="#1C71B5"/>
  <path opacity="0.3" d="M112.257 127.106L104.362 131.665L112.257 136.224L120.152 131.665L112.257 127.106Z" fill="black"/>
  <path d="M120.152 131.653V136.789L112.257 141.347V136.224L120.152 131.653Z" fill="#1C71B5"/>
  <path opacity="0.4" d="M120.152 131.653V136.789L112.257 141.347V136.224L120.152 131.653Z" fill="black"/>
  <path d="M112.257 136.224V141.347L104.362 136.789V131.653L112.257 136.224Z" fill="#1C71B5"/>
  <path opacity="0.55" d="M112.257 136.224V141.347L104.362 136.789V131.653L112.257 136.224Z" fill="black"/>
  <path d="M79.6075 146.494L77.6318 147.635L79.6075 148.776L81.5832 147.635L79.6075 146.494Z" fill="#1C71B5"/>
  <path opacity="0.3" d="M79.6075 146.494L77.6318 147.635L79.6075 148.776L81.5832 147.635L79.6075 146.494Z" fill="black"/>
  <path d="M81.5831 147.635V148.78L79.6074 149.92V148.776L81.5831 147.635Z" fill="#1C71B5"/>
  <path opacity="0.4" d="M81.5831 147.635V148.78L79.6074 149.92V148.776L81.5831 147.635Z" fill="black"/>
  <path d="M79.6075 148.776V149.92L77.6318 148.78V147.635L79.6075 148.776Z" fill="#1C71B5"/>
  <path opacity="0.55" d="M79.6075 148.776V149.92L77.6318 148.78V147.635L79.6075 148.776Z" fill="black"/>
  <path d="M82.6258 145.608L89.9483 141.383C90.1837 141.258 90.4451 141.19 90.7114 141.186C90.9777 141.181 91.2414 141.239 91.4811 141.355C91.8731 141.59 91.8731 141.986 91.4301 142.241L84.1075 146.467C83.8719 146.591 83.6106 146.658 83.3444 146.663C83.0783 146.667 82.8147 146.61 82.5748 146.494C82.1671 146.259 82.1867 145.863 82.6258 145.608Z" fill="#E0E0E0"/>
  <path d="M84.0606 149.066L82.085 150.207L84.0606 151.347L86.0363 150.207L84.0606 149.066Z" fill="#1C71B5"/>
  <path opacity="0.88" d="M84.0606 149.066L82.085 150.207L84.0606 151.347L86.0363 150.207L84.0606 149.066Z" fill="white"/>
  <path d="M86.0362 150.203V151.347L84.0605 152.488V151.347L86.0362 150.203Z" fill="#1C71B5"/>
  <path opacity="0.75" d="M86.0362 150.203V151.347L84.0605 152.488V151.347L86.0362 150.203Z" fill="white"/>
  <path d="M84.0606 151.347V152.488L82.085 151.347V150.203L84.0606 151.347Z" fill="#1C71B5"/>
  <path opacity="0.6" d="M84.0606 151.347V152.488L82.085 151.347V150.203L84.0606 151.347Z" fill="white"/>
  <path d="M87.0791 148.176L94.3978 143.95C94.6328 143.825 94.8941 143.757 95.1604 143.751C95.4267 143.746 95.6905 143.803 95.9305 143.919C96.3421 144.158 96.3225 144.554 95.8834 144.805L88.5609 149.038C88.3253 149.162 88.0639 149.229 87.7978 149.234C87.5316 149.239 87.2681 149.181 87.0282 149.066C86.6322 148.827 86.6322 148.431 87.0791 148.176Z" fill="#E0E0E0"/>
  <path d="M88.5099 151.637L86.5342 152.778L88.5138 153.919L90.4895 152.778L88.5099 151.637Z" fill="#1C71B5"/>
  <path opacity="0.3" d="M88.5099 151.637L86.5342 152.778L88.5138 153.919L90.4895 152.778L88.5099 151.637Z" fill="white"/>
  <path d="M90.4893 152.774V153.919L88.5137 155.06V153.919L90.4893 152.774Z" fill="#1C71B5"/>
  <path d="M88.5138 153.919V155.06L86.5342 153.919V152.774L88.5138 153.919Z" fill="#1C71B5"/>
  <path opacity="0.1" d="M88.5138 153.919V155.06L86.5342 153.919V152.774L88.5138 153.919Z" fill="black"/>
  <path d="M91.5281 150.752L98.8507 146.522C99.0863 146.398 99.3476 146.331 99.6138 146.326C99.8799 146.321 100.143 146.379 100.383 146.494C100.795 146.734 100.775 147.129 100.336 147.38L93.0138 151.606C92.7788 151.732 92.5175 151.8 92.2512 151.805C91.9849 151.811 91.721 151.753 91.4811 151.637C91.0695 151.398 91.093 151.002 91.5281 150.752Z" fill="#E0E0E0"/>
  <path d="M92.963 154.205L90.9873 155.346L92.963 156.487L94.9387 155.346L92.963 154.205Z" fill="#455A64"/>
  <path d="M94.9386 155.346V156.49L92.9629 157.631V156.486L94.9386 155.346Z" fill="#37474F"/>
  <path d="M92.963 156.486V157.631L90.9873 156.49V155.346L92.963 156.486Z" fill="#263238"/>
  <path d="M95.9812 153.323L103.304 149.093C103.539 148.97 103.801 148.902 104.067 148.898C104.333 148.893 104.597 148.951 104.837 149.066C105.248 149.301 105.229 149.697 104.786 149.952L97.4669 154.178C97.2316 154.302 96.9702 154.37 96.7038 154.375C96.4375 154.379 96.1738 154.321 95.9342 154.205C95.5226 153.97 95.5461 153.574 95.9812 153.323Z" fill="#E0E0E0"/>
  <path d="M154.93 92.3081C157.646 92.3081 158.936 93.0921 159.916 95.6715C160.896 98.2508 163.487 104.237 163.538 106.009C163.593 107.847 157.658 113.421 157.885 113.327C157.948 113.296 156.078 109.948 156.078 109.948L159.41 105.867L157.501 100.328L154.93 92.3081Z" fill="#FFA8A7"/>
  <path d="M158.294 153.213C158.462 153.374 158.494 153.527 158.486 154.107C158.478 154.687 158.725 155.334 158.427 155.875C158.208 156.267 157.071 156.557 156.495 156.267C155.992 155.938 155.543 155.535 155.162 155.071C154.804 154.662 154.41 154.286 153.986 153.946C153.496 153.582 152.927 153.338 152.418 153.005C152.018 152.747 151.683 152.4 151.437 151.993C151.191 151.585 151.041 151.127 150.999 150.653C150.966 150.344 151.029 150.032 151.179 149.76C151.301 149.613 151.462 149.504 151.642 149.445C151.823 149.385 152.017 149.377 152.202 149.422C152.755 149.513 154.629 150.559 155.06 150.857C155.624 151.226 158.121 153.048 158.294 153.213Z" fill="#263238"/>
  <path d="M155.542 150.814C155.522 151.23 153.77 150.257 153.053 150.351H153.033C152.363 150.673 152.92 151.61 153.539 152.088C154.158 152.566 156.189 154.048 156.189 154.048L156.604 151.645L155.542 150.814Z" fill="#FFA8A7"/>
  <path d="M147.937 157.584C148.262 157.584 148.407 158.65 148.47 159.47C148.513 160.105 148.756 161.143 148.529 161.61C148.301 162.076 147.451 162.366 146.13 162.339C145.271 162.339 143.93 162.884 143.013 163.382C142.09 163.826 141.046 163.957 140.042 163.754C138.866 163.601 137.658 162.903 137.474 162.417C137.29 161.931 137.541 161.696 140.324 160.551C140.352 160.551 143.264 159.27 144.636 157.807L147.937 157.584Z" fill="#263238"/>
  <path d="M140.336 160.551C139.944 160.708 139.619 160.849 139.325 160.975C139.251 161.237 139.352 161.657 140.583 161.861C142.457 162.174 147.969 158.023 147.969 158.023C147.969 158.023 147.185 158.243 147.032 157.792H144.637C143.265 159.27 140.336 160.54 140.336 160.551Z" fill="#FFA8A7"/>
  <path d="M159.411 139.579C159.44 137.752 159.258 135.928 158.87 134.142C158.87 134.142 159.199 127.141 159.234 122.743C159.309 114.041 159.144 112.763 157.22 109.023C157.22 109.023 145.981 107.71 145.507 113.186C144.919 120.007 144.233 131.418 144.248 134.668C144.248 137.086 144.538 139.709 144.672 145.193C144.758 148.721 145.126 153.668 144.625 157.823C145.26 158.889 146.977 158.87 147.957 158.039C148.239 153.97 150.262 146.177 150.575 143.46C150.745 141.498 150.664 139.522 150.332 137.58C150.332 137.58 151.822 125.961 152.084 124.193C152.466 126.063 152.683 127.962 152.735 129.87C152.735 130.654 153.002 133.229 153.445 137.58C153.715 140.23 155.589 150.587 155.997 153.915C156.937 154.824 158.153 154.197 158.207 153.805C158.521 149.744 159.411 142.116 159.411 139.579Z" fill="#FFA8A7"/>
  <path opacity="0.15" d="M152.096 124.181L153.087 118.541C154.779 118.279 156.336 117.463 157.513 116.22C157.513 116.22 156.917 118.474 153.985 119.242L152.809 124.338L152.613 128.991L152.096 124.181Z" fill="black"/>
  <path d="M149.266 90.4148L149.732 95.5265L154.224 95.256L153.879 89.5837L149.266 90.4148Z" fill="#FFA8A7"/>
  <path d="M158.282 110.383C157.767 109.023 157.11 107.721 156.322 106.499C158.243 100.313 158.858 98.2313 158.486 95.5853C158.247 93.9036 156.918 92.2219 155.287 92.3121H154.056C153.986 93.4881 150.728 93.539 149.493 92.7315L148.352 92.7629C147.549 93.049 144.824 97.0749 144.511 99.7209C144.264 101.881 145.961 103.755 145.961 103.755C145.967 104.672 145.914 105.588 145.801 106.499C145.801 106.499 145.801 111.732 145.801 114.339C145.801 114.339 146.432 116.346 153.025 115.718C158.905 115.162 159.031 113.159 159.031 113.159C158.89 112.207 158.639 111.276 158.282 110.383Z" fill="#1C71B5"/>
  <path d="M149.944 78.4508C149.281 78.3638 148.607 78.4373 147.979 78.6652C147.35 78.893 146.786 79.2685 146.333 79.76C144.036 82.3472 146.557 84.2524 146.557 84.2524L149.944 78.4508Z" fill="#263238"/>
  <path d="M145.949 84.7935C145.949 84.7935 144.95 86.2948 145.079 86.4555C145.311 86.6094 145.568 86.7209 145.839 86.7848L145.949 84.7935Z" fill="#F28F8F"/>
  <path d="M148.999 80.0384C148.031 80.5363 146.357 81.4536 145.918 85.0129C145.467 88.6703 146.278 89.9404 146.776 90.4225C147.109 90.7479 148.846 90.8694 149.752 90.5911C150.888 90.2422 153.346 89.0231 154.499 87.1493C155.859 84.9345 156.149 81.9749 154.589 80.8107C152.394 79.1839 149.818 79.619 148.999 80.0384Z" fill="#FFA8A7"/>
  <path d="M148.517 84.2446C146.49 83.2137 147.007 80.5246 147.007 80.5246C147.007 80.5246 149.9 76.389 155.239 79.0624C157.086 79.9875 158.195 82.0886 158.152 84.5504C158.152 86.087 157.542 87.5607 156.455 88.6472C155.368 89.7337 153.895 90.3442 152.358 90.3442C151.462 90.3442 150.603 89.9882 149.969 89.3545C149.335 88.7208 148.979 87.8613 148.979 86.9651V86.7417L149.152 86.7966C149.427 86.8617 149.715 86.8575 149.988 86.7843C150.262 86.7111 150.513 86.5712 150.72 86.3771C151.609 85.5931 151.715 84.1074 150.59 83.7311C149.465 83.3548 148.881 84.6719 148.881 84.6719L148.446 85.8479C148.341 85.8098 148.245 85.7514 148.162 85.676C148.08 85.6007 148.013 85.5098 147.965 85.4086C147.918 85.3074 147.891 85.1979 147.886 85.0863C147.881 84.9747 147.898 84.8632 147.936 84.7582C147.984 84.6317 148.062 84.5188 148.163 84.4293C148.264 84.3398 148.385 84.2764 148.517 84.2446Z" fill="#263238"/>
  <path d="M136.267 85.0679L126.632 89.8934L131.163 102.951L140.164 98.1058L136.267 85.0679Z" fill="#1C71B5"/>
  <path d="M135.809 86.3301L127.726 90.3794L131.74 101.61L139.29 97.5452L135.809 86.3301Z" fill="#F5F5F5"/>
  <path opacity="0.15" d="M134.099 87.506L133.951 87.114C133.868 86.8945 133.198 87.016 132.453 87.3845L131.03 88.0861C130.289 88.4546 129.752 88.9329 129.835 89.1563L129.983 89.5483L134.099 87.506Z" fill="black"/>
  <path d="M133.97 85.9184C133.919 85.7773 133.629 85.7969 133.319 85.9576L132.763 86.2438C132.763 86.2438 132.437 85.3814 131.155 85.9537C129.874 86.526 130.148 87.5217 130.148 87.5217L129.556 87.8353C129.231 88.0078 128.996 88.2626 129.031 88.3998L129.097 88.6546L134.064 86.1732L133.97 85.9184Z" fill="#37474F"/>
  <path d="M133.429 86.4831C132.966 86.7026 132.786 86.8084 132.911 87.1495C133.037 87.4905 133.19 87.8159 133.19 87.8159L130.995 88.9174C130.995 88.9174 130.822 88.4235 130.744 88.2353C130.665 88.0472 130.512 87.9492 130.164 88.1256L130.034 87.9844L133.499 86.2949L133.429 86.4831Z" fill="#263238"/>
  <path d="M134.189 87.5295L134.044 87.1375C133.962 86.918 133.292 87.0356 132.547 87.404L131.124 88.1097C130.379 88.4781 129.846 88.9564 129.928 89.1759L130.073 89.5679L134.189 87.5295Z" fill="#37474F"/>
  <path d="M148.341 92.7627C146.824 92.7392 145.907 92.8725 143.837 95.9458C141.767 99.0191 137.926 104.664 137.479 105.413C136.852 106.432 136.695 107.996 137.22 108.941C137.694 109.83 138.533 110.14 140.921 107.604C142.685 105.726 146.409 100.74 146.409 100.74C146.409 100.74 149.29 95.3656 148.341 92.7627Z" fill="#FFA8A7"/>
  <path d="M138.16 109.595C136.91 109.987 132.32 104.523 131.046 102.88C130.02 101.512 128.815 100.288 127.463 99.2426C125.695 97.8902 125.989 95.8635 126.8 94.0172C127.082 93.3743 127.976 93.8095 127.976 93.8095L128.286 94.6993L128.819 96.2399C129.191 96.5966 129.407 96.7142 129.431 96.6083C129.481 96.4123 129.172 95.5852 129.191 94.7267C129.219 93.6958 129.932 94.3857 130.14 94.7503C130.426 95.3053 130.671 95.8805 130.873 96.4711C131.218 97.4002 131.053 98.3292 131.485 98.9682C131.916 99.6071 138.149 104.782 138.149 104.782L138.16 109.595Z" fill="#FFA8A7"/>
  <path d="M156.337 106.499C156.337 106.499 151.943 109.094 145.789 106.499C145.24 109.727 144.867 112.983 144.671 116.251C144.452 120.415 143.97 129.348 143.97 129.348C143.97 129.348 145.785 131.469 152.268 131.038C158.501 130.646 159.599 128.999 159.599 128.999C159.599 128.999 159.599 120.975 159.646 117.467C159.689 112.982 159.062 110.544 156.337 106.499Z" fill="#1C71B5"/>
  <path opacity="0.5" d="M156.337 106.499C156.337 106.499 151.943 109.094 145.789 106.499C145.24 109.727 144.867 112.983 144.671 116.251C144.452 120.415 143.97 129.348 143.97 129.348C143.97 129.348 145.785 131.469 152.268 131.038C158.501 130.646 159.599 128.999 159.599 128.999C159.599 128.999 159.599 120.975 159.646 117.467C159.689 112.982 159.062 110.544 156.337 106.499Z" fill="black"/>
  <path d="M158.368 82.8257L159.399 81.8849C159.261 81.7359 159.076 81.6381 158.875 81.6073C158.674 81.5765 158.468 81.6147 158.292 81.7155C158.115 81.8163 157.978 81.9739 157.902 82.1626C157.826 82.3513 157.817 82.5602 157.874 82.7551C157.749 82.7551 157.62 82.7355 157.482 82.7355V90.9989C157.482 92.1391 157.934 93.2329 158.738 94.041C159.543 94.8491 160.635 95.3057 161.775 95.3109V87.024C161.771 86.0407 161.431 85.0883 160.811 84.3247C160.192 83.5611 159.33 83.0322 158.368 82.8257Z" fill="#263238"/>
</svg>