<svg width="26" height="26" viewBox="0 0 26 26" fill="none" xmlns="http://www.w3.org/2000/svg">
<path d="M13 5.41667C10.8875 5.41667 9.09567 6.15261 7.6245 7.6245C6.15333 9.09639 5.41739 10.8882 5.41667 13C5.41667 14.3 5.71025 15.4917 6.29742 16.575C6.88458 17.6583 7.67433 18.5431 8.66667 19.2292V17.3333C8.66667 17.0264 8.77067 16.7693 8.97867 16.562C9.18667 16.3547 9.44378 16.2507 9.75 16.25C10.0562 16.2493 10.3137 16.3533 10.5224 16.562C10.7311 16.7707 10.8348 17.0278 10.8333 17.3333V21.6667C10.8333 21.9736 10.7293 22.2311 10.5213 22.4391C10.3133 22.6471 10.0562 22.7507 9.75 22.75H5.41667C5.10972 22.75 4.85261 22.646 4.64533 22.438C4.43806 22.23 4.33406 21.9729 4.33333 21.6667C4.33261 21.3604 4.43661 21.1033 4.64533 20.8953C4.85406 20.6873 5.11117 20.5833 5.41667 20.5833H6.87917C5.75972 19.6806 4.875 18.5748 4.225 17.2662C3.575 15.9575 3.25 14.5354 3.25 13C3.25 11.6458 3.50747 10.3776 4.02242 9.19533C4.53736 8.01306 5.23214 6.98389 6.10675 6.10783C6.98136 5.23178 8.01053 4.53664 9.19425 4.02242C10.378 3.50819 11.6466 3.25072 13 3.25C15.0403 3.25 16.8776 3.81875 18.512 4.95625C20.1464 6.09375 21.3243 7.55625 22.0458 9.34375C22.1542 9.63264 22.1542 9.9125 22.0458 10.1833C21.9375 10.4542 21.7389 10.6438 21.45 10.7521C21.1611 10.8604 20.8766 10.8604 20.5963 10.7521C20.3161 10.6438 20.1222 10.4451 20.0146 10.1563C19.4549 8.74792 18.5474 7.60608 17.2922 6.73075C16.0369 5.85542 14.6062 5.41739 13 5.41667Z" fill="#1C71B5"/>
<path d="M18.1704 15.559C18.4407 14.7677 19.5339 14.7438 19.8545 15.4871L19.8816 15.5594L20.2464 16.6264C20.3301 16.8712 20.4652 17.0951 20.6427 17.2831C20.8202 17.4712 21.036 17.619 21.2754 17.7165L21.3736 17.7532L22.4405 18.1176C23.2317 18.388 23.2557 19.4812 22.5129 19.8018L22.4405 19.8289L21.3736 20.1938C21.1288 20.2773 20.9048 20.4124 20.7166 20.59C20.5285 20.7675 20.3807 20.9833 20.2831 21.2228L20.2464 21.3205L19.882 22.388C19.6117 23.1792 18.5185 23.2032 18.1984 22.4603L18.1704 22.388L17.806 21.3209C17.7224 21.0762 17.5873 20.8521 17.4098 20.664C17.2323 20.4759 17.0165 20.328 16.777 20.2304L16.6793 20.1938L15.6123 19.8294C14.8207 19.559 14.7967 18.4657 15.54 18.1456L15.6123 18.1176L16.6793 17.7532C16.924 17.6695 17.1479 17.5344 17.336 17.3569C17.524 17.1794 17.6718 16.9636 17.7693 16.7241L17.806 16.6264L18.1704 15.559ZM22.6431 14C22.7277 14 22.8105 14.0237 22.8823 14.0685C22.9541 14.1132 23.0119 14.1772 23.0491 14.2532L23.0708 14.3061L23.229 14.77L23.6933 14.9282C23.7781 14.957 23.8524 15.0103 23.9068 15.0814C23.9613 15.1525 23.9934 15.2381 23.9991 15.3275C24.0048 15.4168 23.9839 15.5058 23.9389 15.5833C23.894 15.6607 23.8271 15.7231 23.7467 15.7624L23.6933 15.7841L23.2295 15.9424L23.0712 16.4067C23.0424 16.4914 22.989 16.5657 22.9179 16.6201C22.8468 16.6745 22.7612 16.7066 22.6718 16.7122C22.5825 16.7179 22.4935 16.6969 22.4161 16.6519C22.3387 16.607 22.2764 16.54 22.2371 16.4596L22.2154 16.4067L22.0571 15.9428L21.5928 15.7846C21.5081 15.7558 21.4338 15.7025 21.3793 15.6314C21.3249 15.5603 21.2928 15.4747 21.2871 15.3853C21.2814 15.296 21.3023 15.207 21.3472 15.1295C21.3922 15.0521 21.4591 14.9897 21.5395 14.9504L21.5928 14.9287L22.0567 14.7704L22.2149 14.3061C22.2454 14.2168 22.3031 14.1392 22.3799 14.0843C22.4567 14.0294 22.5487 13.9999 22.6431 14Z" fill="#1C71B5"/>
</svg>