<svg width="18" height="66" viewBox="0 0 18 66" fill="none" xmlns="http://www.w3.org/2000/svg">
<path d="M5.99442 56.2867C13.5291 51.942 17 49.1538 17 44.5385V33L16.9998 21.4615C16.9998 16.8462 13.5289 14.058 5.99418 9.71329C2.73718 7.8352 1.45469 5.62076 1.00787 3L1 33L1.00811 63C1.45494 60.3792 2.73742 58.1648 5.99442 56.2867Z" fill="white" stroke="#E7E7E7"/>
<line x1="1" y1="-4.37114e-08" x2="1" y2="66" stroke="white" stroke-width="2"/>
<path fill-rule="evenodd" clip-rule="evenodd" d="M3.24372 32.3531C3.08749 32.5094 2.99973 32.7213 2.99973 32.9423C2.99973 33.1632 3.08749 33.3752 3.24372 33.5314L7.95788 38.2456C8.03476 38.3252 8.12671 38.3887 8.22838 38.4323C8.33005 38.476 8.4394 38.499 8.55005 38.5C8.6607 38.5009 8.77043 38.4798 8.87285 38.4379C8.97526 38.396 9.0683 38.3342 9.14655 38.2559C9.22479 38.1777 9.28667 38.0846 9.32857 37.9822C9.37047 37.8798 9.39156 37.7701 9.39059 37.6594C9.38963 37.5488 9.36664 37.4394 9.32297 37.3378C9.2793 37.2361 9.21581 37.1441 9.13622 37.0673L5.01122 32.9423L9.13622 28.8173C9.28802 28.6601 9.37201 28.4496 9.37011 28.2311C9.36822 28.0126 9.28057 27.8036 9.12607 27.6491C8.97156 27.4946 8.76255 27.4069 8.54405 27.405C8.32556 27.4031 8.11505 27.4871 7.95789 27.6389L3.24372 32.3531Z" fill="#959595"/>
</svg>
