<svg width="18" height="66" viewBox="0 0 18 66" fill="none" xmlns="http://www.w3.org/2000/svg">
<path d="M5.99442 56.2867C13.5291 51.942 17 49.1538 17 44.5385V33L16.9998 21.4615C16.9998 16.8462 13.5289 14.058 5.99418 9.71329C2.73718 7.8352 1.45469 5.62076 1.00787 3L1 33L1.00811 63C1.45494 60.3792 2.73742 58.1648 5.99442 56.2867Z" fill="white" stroke="#E7E7E7"/>
<line x1="1" y1="-4.37114e-08" x2="1" y2="66" stroke="white" stroke-width="2"/>
<path fill-rule="evenodd" clip-rule="evenodd" d="M9.14691 32.3531C9.30313 32.5094 9.3909 32.7213 9.3909 32.9423C9.3909 33.1632 9.30313 33.3752 9.14691 33.5314L4.43274 38.2456C4.35587 38.3252 4.26391 38.3887 4.16224 38.4323C4.06057 38.476 3.95122 38.499 3.84057 38.5C3.72993 38.5009 3.62019 38.4798 3.51778 38.4379C3.41537 38.396 3.32232 38.3342 3.24408 38.2559C3.16583 38.1777 3.10396 38.0846 3.06206 37.9822C3.02015 37.8798 2.99907 37.7701 3.00003 37.6594C3.00099 37.5488 3.02398 37.4394 3.06766 37.3378C3.11133 37.2361 3.17481 37.1441 3.25441 37.0673L7.37941 32.9423L3.25441 28.8173C3.10261 28.6601 3.01861 28.4496 3.02051 28.2311C3.02241 28.0126 3.11005 27.8036 3.26456 27.6491C3.41906 27.4946 3.62807 27.4069 3.84657 27.405C4.06507 27.4031 4.27557 27.4871 4.43274 27.6389L9.14691 32.3531Z" fill="#959595"/>
</svg>
