<svg height="120" viewBox="0 0 218.00001 120" width="218" xmlns="http://www.w3.org/2000/svg">
 <g fill-rule="evenodd" transform="matrix(1.3333333 0 0 -1.3333333 -40.263428 200.4024)">
  <path d="m100.2821 144.3018c8.8039 0 17.6318-3.495 24.3359-10.4374 1.1882-1.2303 2.2173-2.5433 3.1784-3.8874 1.7542.7311 3.6032 1.1597 5.487 1.1597 4.2013 0 8.4071-1.8766 11.4959-5.4391 1.8276-2.1078 2.9821-4.5697 3.7002-7.0562 4.4666-.4319 8.856-2.0668 12.3973-5.1125 3.0775-2.6469 5.1079-6.0233 5.9456-9.6205.8377-3.5974.471-7.4098-1.0595-10.82936l-.8697-1.92737h-2.0715-120.14561-1.29666l-.93296.91468c-1.63504 1.6062-2.87854 3.42907-3.58951 5.43914-.71095 2.01007-.85386 4.21111-.39531 6.28851.9172 4.1548 4.03438 7.6161 8.58635 10.1596 5.45787 3.0497 12.22075 4.4428 18.97536 4.4428 1.0587 0 2.10861-.0941 3.16255-.1633 1.52982 5.7046 4.41915 11.136 8.7603 15.6313 6.70415 6.9424 15.532 10.4374 24.33589 10.4374z" fill="#a4bdd8"/>
  <path d="m99.78055 141.8245c-7.94589 0-15.89185-3.2307-21.95435-9.6853-4.05008-4.312-6.70932-9.5239-8.05375-15.0278 3.66197-.6582 7.13105-1.7546 10.0323-3.4215 3.70773-2.1301 5.97034-4.7692 6.81079-7.5271-1.19373 1.8209-3.0426 3.5351-5.59323 5.0006-9.58908 5.509-25.1371 5.509-34.72618 0-7.99205-4.5916-9.22362-11.53944-3.89373-16.92286h119.6773c2.4606 5.65204 1.1444 12.30106-4.0079 16.85706-6.1696 5.4556-15.7254 6.0527-22.6772 1.8555.2241.2221.4181.4577.6595.671 2.4816 2.1946 5.5247 3.5652 8.7132 4.1979-.6015 2.2185-1.584 4.3315-3.0693 6.0927-2.4963 2.9601-5.7712 4.4346-9.043 4.4346-2.2622 0-4.5123-.7445-6.5191-2.1581-1.2322 2.1088-2.6805 4.1162-4.401 5.948-6.0625 6.4546-14.0085 9.6853-21.95435 9.6853z" fill="#e0e5e9"/>
  <path d="m115.8549 123.274c-9.7633 0-19.55317-3.7521-26.9879-11.2056-1.31771-1.3209-2.45892-2.7304-3.52475-4.1735-1.94543.7848-3.99594 1.2451-6.08502 1.2451-4.65909 0-9.32318-2.0149-12.74869-5.8395-2.02673-2.263-3.30709-4.90603-4.1034-7.57559-4.95336-.46368-9.82111-2.21893-13.74825-5.48876-3.41292-2.84174-5.6646-6.46668-6.59355-10.32874-.92905-3.86206-.52242-7.9552 1.17491-11.6264l.96448-2.06928h2.29722 133.23875 1.4379l1.0347.98206c1.8132 1.72442 3.1922 3.68145 3.9807 5.83947.7884 2.15809.9469 4.52112.4384 6.75141-1.0172 4.46057-4.4741 8.17663-9.5221 10.90741-6.0527 3.27417-13.5525 4.76977-21.0432 4.76977-1.1741 0-2.3385-.10101-3.5072-.17535-1.6966 6.1246-4.9008 11.9557-9.715 16.7819-7.4348 7.4534-17.2246 11.2057-26.988 11.2056z" fill="#7298bd"/>
  <path d="m116.4112 120.6143c8.8118 0 17.6237-3.4684 24.3468-10.3981 4.4915-4.6293 7.4405-10.22493 8.9315-16.13399-4.0611-.70666-7.9082-1.88372-11.1257-3.67321-4.1117-2.28699-6.6209-5.1203-7.5529-8.08118 1.3238 1.95496 3.3741 3.79535 6.2027 5.36865 10.6341 5.91443 27.8765 5.91449 38.5105 0 8.863-4.92944 10.2288-12.38885 4.3181-18.16845h-132.71935c-2.72875 6.06805-1.26909 13.20642 4.44459 18.09777 6.84203 5.85718 17.43919 6.49829 25.14861 1.99207-.24857.23852-.46378.49139-.7314.72046-2.75214 2.35602-6.12673 3.82757-9.6628 4.50683.66711 2.38184 1.75662 4.65039 3.40379 6.54125 2.76834 3.1779 6.4001 4.761 10.02846 4.761 2.50879 0 5.00409-.7994 7.22959-2.317 1.36654 2.264 2.97262 4.4192 4.88058 6.3858 6.72321 6.9297 15.53503 10.3981 24.34693 10.3981z" fill="#bec2c7"/>
 </g>
</svg>
