<svg width="39" height="39" viewBox="0 0 39 39" fill="none" xmlns="http://www.w3.org/2000/svg">
<path fill-rule="evenodd" clip-rule="evenodd" d="M17.5859 3.46484C17.0228 3.77807 16.4963 8.40932 13.4921 10.4129C10.5074 12.4032 8.23444 11.3514 5.41791 11.9144C5.41791 11.9144 9.54825 14.7322 9.54825 18.2995C9.54825 21.985 6.85725 23.1818 5.23022 25.6229C5.23022 25.6229 11.1899 25.6851 13.3044 27.3133C15.7785 29.2182 15.057 32.4455 15.9333 35.0122C15.9333 35.0122 19.3007 30.0641 22.1306 29.5668C25.264 29.0147 27.2006 31.5692 29.8295 32.571C29.8295 32.571 27.9514 27.6887 29.6418 24.3091C30.7606 22.0715 33.8977 21.6791 36.0268 20.3652C36.0268 20.3652 31.7076 18.1118 30.3925 15.4829C29.1299 12.9577 30.5802 10.2252 30.7679 7.40872C30.7679 7.40872 26.6363 9.78284 23.2568 8.72253C20.0648 7.72072 19.5018 5.21741 17.6237 3.46484H17.5859Z" fill="#FFFF00"/>
<path fill-rule="evenodd" clip-rule="evenodd" d="M22.7184 2.5752C20.7038 4.45572 20.0991 7.14226 16.6745 8.21598C13.0475 9.35429 8.61445 6.80527 8.61445 6.80527C8.81555 9.82777 10.3717 12.7603 9.01766 15.4696C7.60635 18.2898 2.97266 20.7082 2.97266 20.7082C5.2566 22.1183 8.6236 22.5383 9.82406 24.9393C11.6376 28.5663 9.62297 33.8047 9.62297 33.8047C12.4432 32.7297 14.5193 29.9887 17.883 30.5811C20.9177 31.1149 24.5313 36.424 24.5313 36.424C25.4722 33.6708 24.6971 30.2067 27.3527 28.1629C29.6208 26.4164 36.016 26.35 36.016 26.35C34.2695 23.7309 31.3817 22.4457 31.3817 18.4921C31.3817 14.664 35.8149 11.6417 35.8149 11.6417C32.7924 11.0372 30.3535 12.1641 27.1506 10.0289C23.927 7.88021 23.3625 2.91035 22.758 2.5752H22.7184ZM20.0301 9.11887C20.0409 9.11885 20.0517 9.11885 20.0626 9.11887C22.7311 9.11892 25.2903 10.179 27.1773 12.066C29.0642 13.9529 30.1243 16.5121 30.1244 19.1807C30.1243 21.8492 29.0642 24.4084 27.1773 26.2954C25.2903 28.1823 22.7311 29.2424 20.0626 29.2425C17.394 29.2424 14.8348 28.1823 12.9479 26.2954C11.0609 24.4084 10.0008 21.8492 10.0008 19.1807C10.0008 16.5177 11.0565 13.9634 12.9364 12.0774C14.8163 10.1914 17.3672 9.12752 20.0301 9.11887Z" fill="#FF9400"/>
</svg>
